<svg xmlns="http://www.w3.org/2000/svg" width="16" height="16"><path d="M8 1a2.25 2.25 0 00-2.184 2.793l-1.84-.695A1.606 1.606 0 002.79 6.082L5 7.004v2.39l-1.16 3.481a1.607 1.607 0 003.031 1.066l1.121-3.027 1.125 3.024a1.604 1.604 0 003.028-1.063L11 9.398V7l2.184-.906a1.611 1.611 0 00-1.188-2.996l-1.809.687A2.25 2.25 0 008 1zM6.75 3.25C6.75 2.559 7.309 2 8 2s1.25.559 1.25 1.25S8.691 4.5 8 4.5s-1.25-.559-1.25-1.25zm5.598.785a.614.614 0 01.8.38.614.614 0 01-.347.757l-2.492 1.035a.493.493 0 00-.309.461v2.809c0 .054.008.105.023.156l1.172 3.555a.602.602 0 01-.316.738.604.604 0 01-.824-.336l-1.192-3.203c-.3-.809-1.441-.809-1.742 0l-1.187 3.207a.607.607 0 01-1.145-.403l1.184-3.554A.446.446 0 006 9.477V6.672a.497.497 0 00-.309-.461L3.176 5.156a.602.602 0 01-.32-.8.603.603 0 01.769-.32l3.57 1.35a2.284 2.284 0 001.594 0zm0 0" fill="#ddd"/></svg>