<svg xmlns="http://www.w3.org/2000/svg" width="16" height="16"><path d="M11.293 12l2.852 2.855a.512.512 0 00.71 0 .512.512 0 000-.71l-13-13a.512.512 0 00-.71 0 .512.512 0 000 .71L3.91 4.617A4.527 4.527 0 003.5 6.5v2.402l-.965 2.414a.494.494 0 00.05.465c.095.137.25.219.415.219h3c0 1.11.89 2 2 2 1.11 0 2-.89 2-2zm-1-1H3.738l.727-1.816a.5.5 0 00.035-.188V6.5c0-.39.063-.762.18-1.113zM8 13c-.555 0-1-.445-1-1h2c0 .555-.445 1-1 1zm3.691-3.434l-.156-.382a.5.5 0 01-.035-.188V6.5a3.5 3.5 0 00-5.645-2.766l-.71-.71A4.501 4.501 0 0112.5 6.5v2.401l.965 2.414c.004.012.012.028.015.043zm0 0" fill="#ddd"/></svg>