<svg xmlns="http://www.w3.org/2000/svg" width="16" height="16"><g fill="#ddd"><path d="M10.703 1.043a.498.498 0 00-.66.254.498.498 0 00.254.66c.008.004.113.055.285.152a7.23 7.23 0 012.488 2.477c1.02 1.71.946 3.523.93 3.863V8.5c0 .277.223.5.5.5s.5-.223.5-.5v.004-.024c.004-.023.004-.054.004-.093.004-.078.008-.184.004-.313 0-.258-.016-.613-.07-1.027-.11-.828-.376-1.914-1.008-2.973-1.25-2.094-3.11-2.98-3.227-3.031zm0 0"/><path d="M10.793 3.598a.504.504 0 00-.7.113.504.504 0 00.114.7c.004 0 .012.003.02.01.12.083.722.485 1.128 1.24.426.792.418 1.527.418 1.585v.004a.501.501 0 001 0v-.063c0-.035 0-.085-.003-.144a4.785 4.785 0 00-.055-.465 4.662 4.662 0 00-.48-1.394 4.426 4.426 0 00-.922-1.176 4.003 4.003 0 00-.52-.41zm-8.254 7.109a4 4 0 116.926-4l.82 1.418 1.906 1.387a.496.496 0 01.204.433.502.502 0 01-.247.407l-2.53 1.46h.003l-2.738 1.583v-.004l-2.531 1.46a.503.503 0 01-.477.012.514.514 0 01-.27-.394l-.246-2.344zm.863-.5l.875 1.512a.516.516 0 01.063.199l.18 1.684 6.46-3.735-1.367-.992a.489.489 0 01-.14-.156l-.875-1.512a3 3 0 00-5.196 3zm3.848 4.129a1.752 1.752 0 002.25.43 1.748 1.748 0 00.75-2.16zm0 0"/></g></svg>