<svg xmlns="http://www.w3.org/2000/svg" width="16" height="16"><path d="M13 1.5c0-.277-.223-.5-.5-.5s-.5.223-.5.5V3h-1.5c-.277 0-.5.223-.5.5s.223.5.5.5H12v1.5c0 .277.223.5.5.5s.5-.223.5-.5V4h1.5c.277 0 .5-.223.5-.5s-.223-.5-.5-.5H13zM3.75 2C2.785 2 2 2.785 2 3.75v8.5c0 .965.785 1.75 1.75 1.75h8.5c.965 0 1.75-.785 1.75-1.75v-3c0-.965-.785-1.75-1.75-1.75H8.5V3.75C8.5 2.785 7.715 2 6.75 2zM7.5 8.5V13H3.75a.75.75 0 01-.75-.75V8.5zm0-4.75V7.5H3V3.75A.75.75 0 013.75 3h3a.75.75 0 01.75.75zM12.25 13H8.5V8.5h3.75a.75.75 0 01.75.75v3a.75.75 0 01-.75.75zm0 0" fill="#ddd"/></svg>