<svg xmlns="http://www.w3.org/2000/svg" width="16" height="16"><path d="M11.809 2.45a1.5 1.5 0 00-2.121 0L7.96 4.175A1.5 1.5 0 006.496 3h-3a1.5 1.5 0 00-1.5 1.5v8c0 .508.254.96.645 1.23.242.172.539.27.859.27h8a1.5 1.5 0 001.5-1.5v-3a1.5 1.5 0 00-1.125-1.453l1.707-1.707a1.5 1.5 0 000-2.121zM9.579 8H7.995V6.418zm.816-4.844a.5.5 0 01.707 0l1.773 1.77a.5.5 0 010 .707l-1.773 1.773a.5.5 0 01-.707 0l-1.77-1.773a.5.5 0 010-.707zM6.996 4.5V8h-4V4.5c0-.277.227-.5.5-.5h3c.277 0 .5.223.5.5zM3 12.5V9h3.996v4h-3.5A.5.5 0 013 12.5zM7.996 9H11.5c.277 0 .5.223.5.5v3c0 .277-.223.5-.5.5H7.996zm0 0" fill="#ddd"/></svg>