<svg width="480" height="480" xmlns="http://www.w3.org/2000/svg"><defs><linearGradient x1="12.252%" y1="50%" x2="100%" y2="50%" id="a"><stop stop-color="#EEE" stop-opacity=".19" offset="0%"/><stop stop-color="#FFF" offset="100%"/></linearGradient><linearGradient x1="12.252%" y1="50%" x2="100%" y2="50%" id="b"><stop stop-color="#EEE" stop-opacity=".19" offset="0%"/><stop stop-color="#FFF" offset="100%"/></linearGradient></defs><g fill="none" fill-rule="evenodd"><g fill="#EA7F93"><path d="M251.858 431.42c90.449 19.406 204.407-76.54 206.34-191.937C452.75 126.3 363.399 31.195 242.142 32.005c-121.257.81-201.055 119.889-206.34 207.478-6.166 99.797 92.844 181.768 216.056 191.937z" opacity=".2"/><path d="M214.118 447.317c104.323 4.611 196.41-91.093 194.117-176.417-10.861-111.697-86.91-199.537-194.117-191.805C106.909 86.827 20 165.812 20 255.512c2.858 71.547 90.762 179.408 194.118 191.805z" opacity=".3"/><path d="M227.923 410.452c121.252 20.967 204.937-70.66 204.464-171.255 7.539-94.943-108.796-197.593-216.081-194.163-112.394 0-181.96 85.722-180.761 175.461 6.113 48.59 32.868 172.287 192.378 189.957z" opacity=".4"/><path d="M213.182 406.498c108.353 21.645 193.13-5.764 191.948-167.281-23.892-120.13-112.626-162.24-183.248-161.542-128.39 5.074-178.159 74.55-183.247 161.542 8.612 51.437 58.426 154.993 174.547 167.281z" opacity=".4"/><path d="M215.431 367.61c103.268-13.84 172.871-76.794 174.56-149.5 12.866-105.035-64.287-162.687-166.795-157.269-92.133 21.464-143.7 78.4-156.442 157.27-.118 67.955-10.249 176.428 148.677 149.499z" opacity=".6"/></g><path d="M287.932 137.499c.256.001 12.068.128 12.068 11.75L299.497 161H134v-11.75c0-11.751 12.073-11.751 12.073-11.751zm-22.935-23.5c.688.015 12.136.547 11.644 18.277H157.344c0-17.73 11.463-18.262 12.151-18.278z" fill="url(#a)" transform="translate(20 32)"/><path fill="url(#b)" d="M158 197h127v52H158z" transform="translate(20 32)"/><path d="M339.468 188l7.035 7.047c7.035 7.047 12.06 9.06 10.05 23.658-3.015 15.1-16.583 96.14-18.593 107.214C335.448 338 323.387 338 323.387 338H158.06s-12.563 0-14.573-12.08c-2.01-11.074-15.578-92.618-18.593-107.215-3.015-14.598 2.01-16.611 9.045-23.658l7.035-7.047v19.128h198.495V188zm-131.343 46.552h-16.814v24.004c.013.732.39 12.203 12.228 12.203h71.333c12.228 0 12.228-12.24 12.228-12.24v-23.967h-16.814v19.378h-62.16v-19.378z" fill="#FFF" fill-rule="nonzero"/></g></svg>