<svg xmlns="http://www.w3.org/2000/svg" width="16" height="16"><path d="M7.145.645a.512.512 0 01.71 0l1.5 1.5a.512.512 0 010 .71l-1.5 1.5a.512.512 0 01-.71 0 .512.512 0 010-.71l.644-.641a4.999 4.999 0 00-2.937 8.879.506.506 0 01.074.707.501.501 0 01-.703.07A5.999 5.999 0 017.797 2.004l-.652-.649a.512.512 0 010-.71zm3.93 2.765a.501.501 0 01.702-.07 5.999 5.999 0 01-3.574 10.656l.652.649a.512.512 0 010 .71.512.512 0 01-.71 0l-1.5-1.5A.502.502 0 016.5 13.5c0-.133.05-.262.145-.355l1.5-1.5a.512.512 0 01.71 0 .512.512 0 010 .71l-.644.641a4.999 4.999 0 002.937-8.879.506.506 0 01-.074-.707zm0 0" fill="#ddd"/></svg>