<svg xmlns="http://www.w3.org/2000/svg" width="16" height="16"><path d="M2.5 2c-.277 0-.5.223-.5.5s.223.5.5.5h.246c.223 0 .418.148.48.363L4.814 8.91c.183.645.773 1.09 1.44 1.09h4.571a1.5 1.5 0 001.39-.941l1.477-3.688A1.001 1.001 0 0012.761 4H4.45l-.261-.91A1.501 1.501 0 002.745 2zm3.273 6.637L4.734 5h8.028l-1.473 3.688a.506.506 0 01-.465.312h-4.57a.502.502 0 01-.48-.363zM6.5 14a1.5 1.5 0 100-3 1.5 1.5 0 000 3zm0-1a.498.498 0 01-.5-.5c0-.277.223-.5.5-.5s.5.223.5.5-.223.5-.5.5zm4 1a1.5 1.5 0 100-3 1.5 1.5 0 000 3zm0-1a.498.498 0 01-.5-.5c0-.277.223-.5.5-.5s.5.223.5.5-.223.5-.5.5zm0 0" fill="#ddd"/></svg>