<svg xmlns="http://www.w3.org/2000/svg" width="16" height="16"><path d="M4.172 3.91h1.43l3.171 8.05H7.426l-.774-2.073H3.11l-.77 2.074H1zm-.68 4.961H6.27l-1.36-3.64h-.047zm9.028-2.894c.878 0 1.523.21 1.937.64.36.371.543.914.543 1.625v3.719h-1.129v-.82a2.515 2.515 0 01-.867.699 3.28 3.28 0 01-1.383.281c-.625 0-1.11-.16-1.453-.46a1.439 1.439 0 01-.566-1.188c0-.653.265-1.16.796-1.508.485-.34 1.176-.508 2.055-.531l1.336-.036v-.234c0-.812-.45-1.219-1.348-1.219-.382 0-.695.067-.925.203-.278.157-.45.395-.52.723l-1.21-.101c.128-.633.452-1.106.96-1.399.438-.273 1.035-.394 1.774-.394zm1.27 3.293l-1.259.03c-1.117.024-1.672.407-1.672 1.13a.65.65 0 00.29.55c.183.149.437.227.75.227.519 0 .956-.156 1.324-.46.37-.306.566-.688.566-1.142zm0 0" fill="#ddd"/></svg>