<svg xmlns="http://www.w3.org/2000/svg" width="16" height="16"><g fill="#ddd"><path d="M2.5 6.55a.989.989 0 01-.5-.136.997.997 0 111-1.726.997.997 0 010 1.727.989.989 0 01-.5.136zm0 0"/><path d="M2.176 3.578c.105-.015.215-.023.324-.023.262 0 .508.047.734.136A1.51 1.51 0 014.5 3h7A1.5 1.5 0 0113 4.5v7a1.5 1.5 0 01-1.5 1.5h-7A1.5 1.5 0 013 11.5V7.488c-.16.04-.328.063-.5.063s-.34-.024-.5-.063V11.5C2 12.879 3.121 14 4.5 14h7a2.5 2.5 0 002.5-2.5v-7A2.5 2.5 0 0011.5 2h-7a2.5 2.5 0 00-2.324 1.578zm0 0"/><path d="M6 6c-.277 0-.5.223-.5.5s.223.5.5.5h4c.277 0 .5-.223.5-.5S10.277 6 10 6zm0 3c-.277 0-.5.223-.5.5s.223.5.5.5h2.613c.278 0 .5-.223.5-.5s-.222-.5-.5-.5zm0 0"/></g></svg>