<svg xmlns="http://www.w3.org/2000/svg" width="16" height="16"><g fill="#ddd"><path d="M6 7c0-.277.223-.5.5-.5h3c.277 0 .5.223.5.5s-.223.5-.5.5h-3A.498.498 0 016 7zm.5 1.5c-.277 0-.5.223-.5.5s.223.5.5.5h2c.277 0 .5-.223.5-.5s-.223-.5-.5-.5zm0 0"/><path d="M2 8c0-3.313 2.688-6 6-6 3.313 0 6 2.688 6 6a6.002 6.002 0 01-9.004 5.195l-2.34.778a.5.5 0 01-.504-.114c-.132-.125-.183-.32-.132-.496l.71-2.492A5.981 5.981 0 012 8zm6-5a5 5 0 00-4.3 7.55.5.5 0 01.05.395l-.508 1.782 1.656-.555a.496.496 0 01.426.055A4.998 4.998 0 008 13 5 5 0 108 3zm0 0"/></g></svg>