<svg width="480" height="480" xmlns="http://www.w3.org/2000/svg"><defs><linearGradient x1="50%" y1="100%" x2="50%" y2="5.437%" id="a"><stop stop-color="#EEE" stop-opacity=".19" offset="0%"/><stop stop-color="#FFF" offset="100%"/></linearGradient></defs><g fill="none" fill-rule="evenodd"><g fill="#909EFC"><path d="M251.858 431.42c90.449 19.406 204.407-76.54 206.34-191.937C452.75 126.3 363.399 31.195 242.142 32.005c-121.257.81-201.055 119.889-206.34 207.478-6.166 99.797 92.844 181.768 216.056 191.937z" opacity=".2"/><path d="M214.118 447.317c104.323 4.611 196.41-91.093 194.117-176.417-10.861-111.697-86.91-199.537-194.117-191.805C106.909 86.827 20 165.812 20 255.512c2.858 71.547 90.762 179.408 194.118 191.805z" opacity=".3"/><path d="M227.923 410.452c121.252 20.967 204.937-70.66 204.464-171.255 7.539-94.943-108.796-197.593-216.081-194.163-112.394 0-181.96 85.722-180.761 175.461 6.113 48.59 32.868 172.287 192.378 189.957z" opacity=".4"/><path d="M213.182 406.498c108.353 21.645 193.13-5.764 191.948-167.281-23.892-120.13-112.626-162.24-183.248-161.542-128.39 5.074-178.159 74.55-183.247 161.542 8.612 51.437 58.426 154.993 174.547 167.281z" opacity=".4"/><path d="M215.431 367.61c103.268-13.84 172.871-76.794 174.56-149.5 12.866-105.035-64.287-162.687-166.795-157.269-92.133 21.464-143.7 78.4-156.442 157.27-.118 67.955-10.249 176.428 148.677 149.499z" opacity=".6"/></g><path fill="url(#a)" d="M173 176h88v83h-88z" transform="translate(20 32)"/><path d="M204.338 187.395c.442-1.352 21.964-48.717 66.622-37.748 44.66 10.968 46.325 66.154 46.325 66.154s39.423 10.677 36.567 43.908C351.03 292.94 319.053 301 319.053 301h-67.065v-.001l11.469.001v-10.373h-11.469v-30.165h16.286v-.068c.034 0 .034.034.068.034.97 0 1.734-.787 1.734-1.745 0-.325-.102-.565-.255-.839h.102l-.289-.308c-.05-.051-.102-.102-.153-.137l-30.056-31.793c-.425-.53-1.054-.89-1.768-.89-.697 0-1.292.325-1.717.804l-30.276 32.05c-.408.291-.68.736-.68 1.25 0 .872.68 1.557 1.53 1.557v.068h17.085l-.001 30.182h-11.88l-.001 10.355h-62s-43.137-10.582-31.827-47.77l.36-1.134c12.563-38.074 37.06-36.072 37.06-36.072s-5.984-19.045 10.54-29.073c16.54-10.027 32.283-2.207 35.853 1.198 0 0 2.193.616 2.635-.736z" fill="#FFF" fill-rule="nonzero"/></g></svg>