<svg width="480" height="480" xmlns="http://www.w3.org/2000/svg"><defs><linearGradient x1="-16.697%" y1="44.659%" x2="104.491%" y2="44.659%" id="a"><stop stop-color="#EEE" stop-opacity=".19" offset="0%"/><stop stop-color="#FFF" offset="100%"/></linearGradient></defs><g fill="none" fill-rule="evenodd"><g fill="#FB9B62"><path d="M251.858 431.42c90.449 19.406 204.407-76.54 206.34-191.937C452.75 126.3 363.399 31.195 242.142 32.005c-121.257.81-201.055 119.889-206.34 207.478-6.166 99.797 92.844 181.768 216.056 191.937z" opacity=".2"/><path d="M214.118 447.317c104.323 4.611 196.41-91.093 194.117-176.417-10.861-111.697-86.91-199.537-194.117-191.805C106.909 86.827 20 165.812 20 255.512c2.858 71.547 90.762 179.408 194.118 191.805z" opacity=".3"/><path d="M227.923 410.452c121.252 20.967 204.937-70.66 204.464-171.255 7.539-94.943-108.796-197.593-216.081-194.163-112.394 0-181.96 85.722-180.761 175.461 6.113 48.59 32.868 172.287 192.378 189.957z" opacity=".4"/><path d="M213.182 406.498c108.353 21.645 193.13-5.764 191.948-167.281-23.892-120.13-112.626-162.24-183.248-161.542-128.39 5.074-178.159 74.55-183.247 161.542 8.612 51.437 58.426 154.993 174.547 167.281z" opacity=".4"/><path d="M215.431 367.61c103.268-13.84 172.871-76.794 174.56-149.5 12.866-105.035-64.287-162.687-166.795-157.269-92.133 21.464-143.7 78.4-156.442 157.27-.118 67.955-10.249 176.428 148.677 149.499z" opacity=".6"/></g><path d="M219.084 96c-5.951 0-11.497 3.535-14.288 9.053l-25.392 51.217-56.724 10.243c-6.345.805-11.092 5.11-13.084 11.014-1.575 5.518 0 12.226 4.377 16.566l40.85 37.859L144.1 287.1c-1.181 5.915 1.586 12.227 6.356 15.75 2.663 2.007 5.987 2.998 9.263 2.998 2.582 0 5.118-.618 7.376-1.82l51.988-25.608 51.572 25.608c2.385 1.167 5.152 1.972 7.526 1.972 3.578 0 6.762-1.167 9.124-3.15 4.77-3.523 7.526-9.438 6.357-15.75l-10.328-55.148 40.85-38.232c4.376-4.34 5.95-10.652 3.97-16.567-1.663-5.906-6.667-10.241-12.713-11.013l-56.712-9.847-25.392-51.216C230.988 99.57 225.036 96 219.084 96z" fill="url(#a)" transform="translate(20 32)"/><path d="M174.986 263.952L164.272 319.1c-1.18 5.915 1.585 12.227 6.352 15.75 2.661 2.007 5.982 2.998 9.257 2.998 2.58 0 5.114-.618 7.37-1.82l51.953-25.608 51.537 25.608c2.384 1.167 5.149 1.972 7.521 1.972 3.575 0 6.757-1.167 9.118-3.15 4.767-3.523 7.52-9.438 6.352-15.75l-10.321-55.148m-24.588-75.659l-25.375-51.216C251.1 131.57 245.152 128 239.204 128c-5.947 0-11.49 3.535-14.278 9.053l-25.375 51.217" fill="#FFF" fill-rule="nonzero"/><path d="M275.14 182.704C287.671 205.258 296.958 233.69 303 268H174c5.57-34.31 14.915-62.742 28.037-85.296 18.975-16.003 55.107-15.203 73.102 0z" fill="#FFF"/></g></svg>