<svg xmlns="http://www.w3.org/2000/svg" width="16" height="16"><g fill="#ddd"><path d="M8 3a6.002 6.002 0 00-4.246 10.238.5.5 0 11-.707.707A6.973 6.973 0 011 9c0-3.867 3.133-7 7-7s7 3.133 7 7c0 1.93-.781 3.68-2.047 4.945a.5.5 0 11-.707-.707A6.002 6.002 0 008 3zm0 0"/><path d="M8 5.5a3.503 3.503 0 00-2.477 5.977.5.5 0 11-.707.707 4.501 4.501 0 116.367 0 .5.5 0 11-.706-.707A3.503 3.503 0 008 5.5zm0 0"/><path d="M8 7a1.999 1.999 0 100 4 1.999 1.999 0 100-4zM7 9c0-.55.45-1 1-1s1 .45 1 1-.45 1-1 1-1-.45-1-1zm0 0"/></g></svg>