<svg xmlns="http://www.w3.org/2000/svg" width="16" height="16"><g fill="#ddd"><path d="M6.5 7v4c0 .277.223.5.5.5s.5-.223.5-.5V7c0-.277-.223-.5-.5-.5s-.5.223-.5.5zM9 6.5c.277 0 .5.223.5.5v4c0 .277-.223.5-.5.5a.498.498 0 01-.5-.5V7c0-.277.223-.5.5-.5zm0 0"/><path d="M10 4h3c.277 0 .5.223.5.5s-.223.5-.5.5h-.55l-.755 6.777A2.5 2.5 0 019.211 14H6.789a2.5 2.5 0 01-2.484-2.223L3.55 5H3a.498.498 0 01-.5-.5c0-.277.223-.5.5-.5h3a1.999 1.999 0 114 0zM8 3c-.55 0-1 .45-1 1h2c0-.55-.45-1-1-1zM4.559 5l.742 6.664A1.497 1.497 0 006.789 13h2.422c.762 0 1.406-.574 1.488-1.336L11.441 5zm0 0"/></g></svg>