<svg xmlns="http://www.w3.org/2000/svg" width="16" height="16"><path d="M3 3.832C3 3.375 3.375 3 3.832 3h1.336a.501.501 0 000-1H3.832C2.82 2 2 2.82 2 3.832v1.336a.501.501 0 001 0zm0 8.336c0 .457.375.832.832.832h1.336a.501.501 0 010 1H3.832A1.832 1.832 0 012 12.168v-1.336a.501.501 0 011 0zM12.168 3c.457 0 .832.375.832.832v1.336a.501.501 0 001 0V3.832C14 2.82 13.18 2 12.168 2h-1.336a.501.501 0 000 1zM13 12.168a.835.835 0 01-.832.832h-1.336a.501.501 0 000 1h1.336C13.18 14 14 13.18 14 12.168v-1.336a.501.501 0 00-1 0zm0 0" fill="#ddd"/></svg>