<svg xmlns="http://www.w3.org/2000/svg" width="16" height="16"><path d="M5.668 2.5a.501.501 0 00-1 0v1.668c0 .273-.227.5-.5.5H2.5a.501.501 0 000 1h1.668a1.5 1.5 0 001.5-1.5zm0 11a.501.501 0 01-1 0v-1.668c0-.273-.227-.5-.5-.5H2.5a.501.501 0 010-1h1.668a1.5 1.5 0 011.5 1.5zM10.832 2c-.273 0-.5.223-.5.5v1.668a1.5 1.5 0 001.5 1.5H13.5a.501.501 0 000-1h-1.668a.504.504 0 01-.5-.5V2.5c0-.277-.223-.5-.5-.5zm-.5 11.5a.501.501 0 001 0v-1.668c0-.273.227-.5.5-.5H13.5a.501.501 0 000-1h-1.668a1.5 1.5 0 00-1.5 1.5zm0 0" fill="#ddd"/></svg>