<svg xmlns="http://www.w3.org/2000/svg" width="16" height="16"><path d="M8.406 2.25l1.547 3.145h-.008 3.606a.45.45 0 01.445.39l.004.059a.45.45 0 01-.39.445l-.06.004H9.665a.446.446 0 01-.375-.2l-.031-.054-.477-.996-.777-1.574-1.313 2.66a.448.448 0 01-.34.246l-2.933.422 2.125 2.07a.445.445 0 01.129.399l-.504 2.921 2.602-1.37a1.382 1.382 0 00-.067.421c0 .203.043.395.125.567L4.781 13.41a.45.45 0 01-.652-.476l.617-3.586-2.61-2.543a.449.449 0 01.25-.766l3.606-.52L7.598 2.25a.453.453 0 01.808 0zm5.145 8.54a.452.452 0 01.058.898l-.058.003H9.055a.453.453 0 01-.453-.453c0-.226.171-.414.39-.445l.063-.004zm0-2.692a.45.45 0 01.058.894l-.058.004h-4.5a.45.45 0 01-.059-.894l.059-.004zm0 0" fill="#ddd"/></svg>