<svg width="480" height="480" xmlns="http://www.w3.org/2000/svg"><defs><linearGradient x1="12.252%" y1="50%" x2="100%" y2="50%" id="a"><stop stop-color="#EEE" stop-opacity=".19" offset="0%"/><stop stop-color="#FFF" offset="100%"/></linearGradient><linearGradient x1="12.252%" y1="50%" x2="100%" y2="50%" id="b"><stop stop-color="#EEE" stop-opacity=".19" offset="0%"/><stop stop-color="#FFF" offset="100%"/></linearGradient></defs><g fill="none" fill-rule="evenodd"><g fill="#8694FD"><path d="M251.858 431.42c90.449 19.406 204.407-76.54 206.34-191.937C452.75 126.3 363.399 31.195 242.142 32.005c-121.257.81-201.055 119.889-206.34 207.478-6.166 99.797 92.844 181.768 216.056 191.937z" opacity=".2"/><path d="M214.118 447.317c104.323 4.611 196.41-91.093 194.117-176.417-10.861-111.697-86.91-199.537-194.117-191.805C106.909 86.827 20 165.812 20 255.512c2.858 71.547 90.762 179.408 194.118 191.805z" opacity=".3"/><path d="M227.923 410.452c121.252 20.967 204.937-70.66 204.464-171.255 7.539-94.943-108.796-197.593-216.081-194.163-112.394 0-181.96 85.722-180.761 175.461 6.113 48.59 32.868 172.287 192.378 189.957z" opacity=".4"/><path d="M213.182 406.498c108.353 21.645 193.13-5.764 191.948-167.281-23.892-120.13-112.626-162.24-183.248-161.542-128.39 5.074-178.159 74.55-183.247 161.542 8.612 51.437 58.426 154.993 174.547 167.281z" opacity=".4"/><path d="M215.431 367.61c103.268-13.84 172.871-76.794 174.56-149.5 12.866-105.035-64.287-162.687-166.795-157.269-92.133 21.464-143.7 78.4-156.442 157.27-.118 67.955-10.249 176.428 148.677 149.499z" opacity=".6"/></g><path d="M142 216h197v88c0 8.837-8.82 16-19.7 16H161.7c-10.88 0-19.7-7.163-19.7-16v-88z" fill="#FFF" fill-rule="nonzero"/><path d="M157.6 122h62.216c4.884 0 8.855 3.263 8.932 7.333.077 4.07 4.059 7.334 8.943 7.334H298.4c9.72 0 17.6 6.566 17.6 14.666V166H140v-29.333c0-8.1 7.88-14.667 17.6-14.667z" fill="url(#a)" transform="translate(20 32)"/><path d="M164.8 114h59.388c4.662 0 8.453 3.04 8.526 6.833.073 3.793 3.875 6.834 8.536 6.834h57.95c9.278 0 16.8 6.118 16.8 13.666V155H148v-27.333c0-7.548 7.522-13.667 16.8-13.667z" fill="url(#b)" opacity=".5" transform="translate(20 32)"/><path d="M161.7 159h69.64c5.466 0 9.911 3.486 9.997 7.833.086 4.348 4.544 7.834 10.01 7.834H319.3c10.88 0 19.7 7.014 19.7 15.666V206H142v-31.333c0-8.653 8.82-15.667 19.7-15.667z" fill="#FFF" fill-rule="nonzero"/></g></svg>