<svg xmlns="http://www.w3.org/2000/svg" width="16" height="16"><path d="M13.004 6v-.004c0-1.105-.895-2-2-2H6.176l-1.11-.887A.507.507 0 004.754 3H3c-1.105 0-2 .895-2 2v6c0 1.105.895 2 2 2h9.25c.668 0 1.254-.441 1.441-1.078l1.168-4A1.501 1.501 0 0013.418 6zM3 4h1.578l1.11.887c.09.07.199.11.312.11h5.004c.55 0 1 .448 1 1V6H4.25c-.668 0-1.254.441-1.441 1.078L2 9.855V5c0-.55.45-1 1-1zm.77 3.36A.503.503 0 014.25 7h9.168a.5.5 0 01.48.64l-1.168 4a.503.503 0 01-.48.36H3.082a.503.503 0 01-.48-.64zm0 0" fill="#ddd"/></svg>