<svg xmlns="http://www.w3.org/2000/svg" width="16" height="16"><g fill="#ddd"><path d="M8.172 8.84c-.317-1.5-.664-2.688-1.047-3.57-.383-.88-.73-1.32-1.047-1.32-.156 0-.281.077-.379.23-.097.152-.16.367-.183.648h-.36v-.465c0-.625.09-1.093.27-1.398a.897.897 0 01.82-.465c.672 0 1.371 1.668 2.102 5l.136.64c.504-1.195.84-2.503 1.012-3.921.024-.184.04-.313.055-.39.062-.462.156-.798.289-1.005.133-.203.312-.308.535-.308.219 0 .387.058.5.175.113.118.172.29.172.512 0 .418-.317 1.27-.953 2.559C9.457 7.05 8.98 8.094 8.66 8.887c.078.586.14 1.11.184 1.574.047.469.066.86.066 1.18 0 .523-.055.898-.16 1.125-.105.226-.277.34-.512.34a.577.577 0 01-.52-.282c-.116-.187-.175-.469-.175-.84 0-.37.055-.82.16-1.347a21.5 21.5 0 01.469-1.797zm0 0"/><path d="M8.172 8.84c-.317-1.5-.664-2.688-1.047-3.57-.383-.88-.73-1.32-1.047-1.32-.156 0-.281.077-.379.23-.097.152-.16.367-.183.648h-.36v-.465c0-.625.09-1.093.27-1.398a.897.897 0 01.82-.465c.672 0 1.371 1.668 2.102 5l.136.64c.504-1.195.84-2.503 1.012-3.921.024-.184.04-.313.055-.39.062-.462.156-.798.289-1.005.133-.203.312-.308.535-.308.219 0 .387.058.5.175.113.118.172.29.172.512 0 .418-.317 1.27-.953 2.559C9.457 7.05 8.98 8.094 8.66 8.887c.078.586.14 1.11.184 1.574.047.469.066.86.066 1.18 0 .523-.055.898-.16 1.125-.105.226-.277.34-.512.34a.577.577 0 01-.52-.282c-.116-.187-.175-.469-.175-.84 0-.37.055-.82.16-1.347a21.5 21.5 0 01.469-1.797zM4.594 2.473c.086.007.133-.012.129-.063-.004-.062-.024-.07-.125-.07h-.004c-.004 0-.004 0-.004.004s0 .004.004.004h.004c.097 0 .113.007.117.062.004.043-.035.063-.121.055H4.59c0 .004 0 .008.004.008zm-.016.047h.149c.003 0 .003 0 .003-.004s0-.004-.003-.004h-.149c-.004 0-.004 0-.004.004s0 .004.004.004zm0 0"/></g></svg>