<svg xmlns="http://www.w3.org/2000/svg" width="16" height="16"><path d="M8.203 2.004a.512.512 0 00-.379.176l-.05.035C6.27 1.773 4.561 2.117 3.37 3.242c-1.055 1-1.46 2.383-1.21 3.676l-.016.012-.672.636a1.348 1.348 0 000 1.98c.343.325.812.458 1.257.395.063.235.192.454.387.637.262.246.594.383.938.406.023.325.168.641.43.887.261.246.593.383.937.406.023.325.168.641.43.887a1.545 1.545 0 001.945.125l.328.313a1.556 1.556 0 002.105 0c.262-.25.407-.563.43-.883.34-.028.672-.16.934-.406.261-.247.402-.563.43-.887.335-.024.66-.16.917-.403.204-.191.336-.425.395-.668a1.54 1.54 0 001.234-.398 1.341 1.341 0 000-1.98l-.593-.563.113-.418a3.802 3.802 0 00-.367-2.887c-.735-1.304-2.16-2.101-3.692-2.101H9.016c-.047 0-.094-.004-.141-.004zm4.375 5.457l.485.48a.64.64 0 00.101.079l.68.644c.18.164.18.438 0 .606a.47.47 0 01-.64 0L12.065 8.19a.531.531 0 00-.726 0l-.012.012a.46.46 0 000 .684l.887.843c.18.165.18.438 0 .606a.471.471 0 01-.594.039.536.536 0 00-.672.047.463.463 0 00-.043.637.413.413 0 01-.039.566.483.483 0 01-.601.035.536.536 0 00-.68.035.469.469 0 00-.043.645.42.42 0 01-.04.574.485.485 0 01-.651 0l-.32-.305.085-.078a1.348 1.348 0 000-1.98 1.522 1.522 0 00-.937-.406 1.366 1.366 0 00-.43-.887 1.5 1.5 0 00-.938-.406 1.366 1.366 0 00-.43-.887 1.54 1.54 0 00-1.257-.399 1.434 1.434 0 00-.387-.636 1.525 1.525 0 00-1.101-.407c-.11-.925.21-1.886.96-2.593a3.458 3.458 0 012.583-.922l-1.098.789a1.505 1.505 0 00-.293 2.18c.535.668 1.527.8 2.219.296l1.347-.968h1.442zm-6.41-2.852l2.223-1.605h.484c.035 0 .066 0 .102.004H10.03c1.192 0 2.274.62 2.82 1.594.352.62.458 1.34.301 2.023l-2.21-2.176a.5.5 0 00-.352-.144H8.695a.494.494 0 00-.293.093L6.926 5.465a.647.647 0 01-.86-.117.505.505 0 01.102-.739zm1.082 6.625a.474.474 0 01.64.004.414.414 0 010 .606l-.671.633a.47.47 0 01-.64 0 .407.407 0 010-.606zm-.727-.687l-.671.637a.47.47 0 01-.641 0 .406.406 0 01-.012-.594l.012-.012.672-.633.008-.011a.477.477 0 01.632.011.409.409 0 010 .602zm-1.367-1.29l-.672.634-.011.011a.472.472 0 01-.63-.011.407.407 0 010-.606l.673-.633a.47.47 0 01.64 0 .41.41 0 01.008.594zM3.512 8.224l-.672.636a.47.47 0 01-.64 0 .414.414 0 010-.605l.671-.637a.47.47 0 01.64 0 .413.413 0 010 .606zm0 0" fill="#ddd"/></svg>