<svg xmlns="http://www.w3.org/2000/svg" width="16" height="16"><path d="M8 2c3.313 0 6 2.688 6 6a6.002 6.002 0 01-10.242 4.242 5.881 5.881 0 01-.848-1.066A5.942 5.942 0 012 8a6.4 6.4 0 01.023-.547.5.5 0 11.996.09 4.987 4.987 0 002.332 4.7A5 5 0 104 5l1.837-.001a.501.501 0 01.066.996L5.836 6H2.832a.497.497 0 01-.492-.43l-.008-.07v-3c0-.273.227-.5.5-.5.254 0 .465.191.496.434l.004.066v1.73A5.983 5.983 0 018 2zm-.5 2.668c.254 0 .46.187.496.43l.004.07V8h1.5a.501.501 0 01.066.996L9.5 9h-2a.501.501 0 01-.496-.434L7 8.5V5.168c0-.277.223-.5.5-.5zm0 0" fill="#ddd"/></svg>