<svg xmlns="http://www.w3.org/2000/svg" width="16" height="16"><path d="M7.313 1.262a1.004 1.004 0 011.375 0L13.53 5.84c.301.285.469.68.469 1.09v5.57a1.5 1.5 0 01-1.5 1.5h-2A1.5 1.5 0 019 12.5V10c0-.277-.223-.5-.5-.5h-1c-.277 0-.5.223-.5.5v2.5A1.5 1.5 0 015.5 14h-2A1.5 1.5 0 012 12.5V6.93c0-.41.168-.805.469-1.09zM8 1.988L3.156 6.566A.493.493 0 003 6.93v5.57c0 .277.223.5.5.5h2c.277 0 .5-.223.5-.5V10a1.5 1.5 0 011.5-1.5h1A1.5 1.5 0 0110 10v2.5c0 .277.223.5.5.5h2c.277 0 .5-.223.5-.5V6.93a.493.493 0 00-.156-.364zm0 0" fill="#ddd"/></svg>