<svg xmlns="http://www.w3.org/2000/svg" width="16" height="16"><path d="M7.602 8.992a3.335 3.335 0 01-2.93-3.316A3.334 3.334 0 018 2.332a3.334 3.334 0 013.328 3.344c0 .457-.09.894-.258 1.293a3.552 3.552 0 00-.84.004c.227-.395.348-.844.348-1.297A2.583 2.583 0 008 3.086a2.583 2.583 0 00-2.578 2.59A2.582 2.582 0 008 8.262h.023a3.321 3.321 0 00-.421.73zm-.008 0c-.004-.004-.012-.004-.016-.008.078-.187.14-.32.184-.39.043-.074.125-.18.238-.309l.004.004a3.32 3.32 0 012.668-1.344A3.333 3.333 0 0114 10.285a3.334 3.334 0 01-3.328 3.344c-1.055 0-2.047-.5-2.672-1.352a3.312 3.312 0 01-2.672 1.352A3.334 3.334 0 012 10.285 3.335 3.335 0 014.93 6.97c.11.261.25.504.422.73h-.024a2.58 2.58 0 00-2.578 2.586 2.586 2.586 0 002.578 2.59 2.586 2.586 0 002.578-2.59 2.62 2.62 0 00-.347-1.3zm.82.043c.156.387.242.809.242 1.25 0 .445-.086.867-.242 1.254a2.574 2.574 0 002.258 1.336 2.586 2.586 0 002.578-2.59A2.58 2.58 0 0010.672 7.7c-.942 0-1.805.512-2.258 1.336zm0 0" fill="#ddd"/></svg>