<svg xmlns="http://www.w3.org/2000/svg" width="16" height="16"><path d="M12.5 1.996c.277 0 .5.223.5.5v2.508h.5a.501.501 0 010 1H13V10.5c0 .277-.223.5-.5.5a.498.498 0 01-.5-.5V2.496c0-.277.223-.5.5-.5zm-5 1H10V4.25c0 .414-.156.707-.398.906-.254.211-.633.344-1.098.344-.277 0-.5.223-.5.5s.223.5.5.5c.648 0 1.266-.184 1.734-.57.477-.399.762-.977.762-1.68V2.496a.502.502 0 00-.145-.355.502.502 0 00-.355-.145h-3c-.277 0-.5.223-.5.5s.223.5.5.5zM6.453 5.301A.495.495 0 005.996 5c-.2 0-.379.117-.457.3l-3.496 8a.495.495 0 00.258.657.494.494 0 00.656-.258L4.137 11h3.722l1.184 2.7c.11.253.406.37.656.257a.495.495 0 00.258-.656zM7.422 10H4.574l1.422-3.254zm0 0" fill="#ddd"/></svg>