<svg width="480" height="480" xmlns="http://www.w3.org/2000/svg"><defs><linearGradient x1="12.252%" y1="50%" x2="100%" y2="50%" id="a"><stop stop-color="#EEE" stop-opacity=".19" offset="0%"/><stop stop-color="#FFF" offset="100%"/></linearGradient></defs><g fill="none" fill-rule="evenodd"><g fill="#FE4EBC"><path d="M251.858 431.42c90.449 19.406 204.407-76.54 206.34-191.937C452.75 126.3 363.399 31.195 242.142 32.005c-121.257.81-201.055 119.889-206.34 207.478-6.166 99.797 92.844 181.768 216.056 191.937z" opacity=".2"/><path d="M214.118 447.317c104.323 4.611 196.41-91.093 194.117-176.417-10.861-111.697-86.91-199.537-194.117-191.805C106.909 86.827 20 165.812 20 255.512c2.858 71.547 90.762 179.408 194.118 191.805z" opacity=".3"/><path d="M227.923 410.452c121.252 20.967 204.937-70.66 204.464-171.255 7.539-94.943-108.796-197.593-216.081-194.163-112.394 0-181.96 85.722-180.761 175.461 6.113 48.59 32.868 172.287 192.378 189.957z" opacity=".4"/><path d="M213.182 406.498c108.353 21.645 193.13-5.764 191.948-167.281-23.892-120.13-112.626-162.24-183.248-161.542-128.39 5.074-178.159 74.55-183.247 161.542 8.612 51.437 58.426 154.993 174.547 167.281z" opacity=".4"/><path d="M215.431 367.61c103.268-13.84 172.871-76.794 174.56-149.5 12.866-105.035-64.287-162.687-166.795-157.269-92.133 21.464-143.7 78.4-156.442 157.27-.118 67.955-10.249 176.428 148.677 149.499z" opacity=".6"/></g><path fill="url(#a)" transform="rotate(14 162.305 361.627)" d="M281.526 241.587l-13.014-11.073-20.226-.003-13.557 12.263.003 18.585 47.89 36.497 47.879-36.573-.003-19.229-13.33-11.532-22.195-.003z"/><path fill="#FFF" fill-rule="nonzero" d="M210.615 184.604L182.084 156H137.73L108 187.693v48.023L212.998 330 318 235.478v-49.687L288.774 156h-48.668z"/></g></svg>