<svg xmlns="http://www.w3.org/2000/svg" width="16" height="16"><path d="M9.5 4h1A3.5 3.5 0 0114 7.5a3.503 3.503 0 01-3.305 3.496l-.191.004-1 .004A.499.499 0 019 10.508c0-.246.176-.453.406-.496l.09-.008L10.5 10c1.379 0 2.5-1.121 2.5-2.5a2.503 2.503 0 00-2.336-2.496L10.5 5h-1a.5.5 0 01-.09-.992L9.5 4h1zm-4 0h1a.5.5 0 01.09.992L6.5 5h-1A2.502 2.502 0 003 7.5a2.503 2.503 0 002.336 2.496L5.5 10h1a.5.5 0 01.09.992L6.5 11h-1A3.5 3.5 0 012 7.5a3.504 3.504 0 013.309-3.496L5.5 4h1zm0 3l5 .004c.277 0 .5.223.5.5 0 .242-.176.45-.41.492l-.09.008L5.5 8a.5.5 0 01-.09-.992zm0 0" fill="#ddd"/></svg>