<svg xmlns="http://www.w3.org/2000/svg" width="16" height="16"><path d="M7.836 1.504L8 1.5a2.503 2.503 0 012.496 2.336L10.5 4v1h1A1.5 1.5 0 0113 6.5v6a1.5 1.5 0 01-1.5 1.5h-7A1.5 1.5 0 013 12.5v-6A1.5 1.5 0 014.5 5h1V4a2.503 2.503 0 012.336-2.496zM11.5 6h-7c-.277 0-.5.223-.5.5v6c0 .277.223.5.5.5h7c.277 0 .5-.223.5-.5v-6c0-.277-.223-.5-.5-.5zM8 8.5c.55 0 1 .45 1 1s-.45 1-1 1-1-.45-1-1 .45-1 1-1zm.145-5.992L8 2.5c-.781 0-1.422.594-1.492 1.355L6.5 4v1h3V4c0-.781-.594-1.422-1.355-1.492zm0 0" fill="#ddd"/></svg>