<svg width="64" height="64" version="1.1" viewBox="0 0 16.933 16.933" id="svg18" xml:space="preserve" xmlns="http://www.w3.org/2000/svg"><defs id="defs6"><filter x="-.108" y="-.108" width="1.216" height="1.216" color-interpolation-filters="sRGB" id="filter4"><feGaussianBlur stdDeviation=".548" id="feGaussianBlur2"/></filter><style type="text/css" id="style2"/></defs><g stroke-width=".963" id="g265" transform="rotate(4.177 8.466 8.472)"><path d="M13.323 3.603c-.048.049 2.02 4.86 2.02 4.86l-2.02 4.858s-4.86-2.568-4.86-4.859c0-2.29 4.86-4.859 4.86-4.859z" fill="#46a926" style="isolation:isolate" transform="matrix(1.0382 0 0 1.0384 -.322 -.322)" id="path241"/><path d="M3.604 13.321c.049-.049-2.02-4.859-2.02-4.859l2.02-4.859s4.86 2.569 4.86 4.86c0 2.29-4.86 4.858-4.86 4.858z" fill="#f22c42" style="isolation:isolate" transform="matrix(1.0382 0 0 1.0384 -.322 -.322)" id="path243"/><path d="M13.323 3.603c-.048.049-4.86-2.019-4.86-2.019l-4.86 2.019 4.86 4.86z" fill="#ffda64" style="isolation:isolate" transform="matrix(1.0382 0 0 1.0384 -.322 -.322)" id="path245"/><path d="M3.604 13.321l4.86 2.013s4.81-2.062 4.86-2.013l-4.86-4.859z" fill="#2f5fdd" style="isolation:isolate" transform="matrix(1.0382 0 0 1.0384 -.322 -.322)" id="path247"/><path d="M8.464 1.587a6.846 6.846 0 002.019 4.862l2.845-2.844a6.88 6.88 0 00-4.861-2.018z" fill="#a6d74f" style="isolation:isolate" transform="matrix(1.0382 0 0 1.0384 -.322 -.322)" id="path249"/><path d="M13.328 3.605l-2.845 2.844a6.84 6.84 0 004.863 2.012 6.88 6.88 0 00-2.018-4.856z" fill="#76c22b" style="isolation:isolate" transform="matrix(1.0382 0 0 1.0384 -.322 -.322)" id="path251"/><path d="M10.476 10.481a6.85 6.85 0 00-2.019 4.862h.069a6.88 6.88 0 004.8-2.013z" fill="#1463a5" style="isolation:isolate" transform="matrix(1.0382 0 0 1.0384 -.322 -.322)" id="path253"/><path d="M15.346 8.469a6.84 6.84 0 00-4.87 2.012l2.85 2.85a6.88 6.88 0 002.02-4.862z" fill="#2b898f" style="isolation:isolate" transform="matrix(1.0382 0 0 1.0384 -.322 -.322)" id="path255"/><path d="M1.587 8.463a6.88 6.88 0 000 .003 6.88 6.88 0 002.014 4.857l2.85-2.848a6.839 6.839 0 00-4.864-2.011z" fill="#9b33ae" style="isolation:isolate" transform="matrix(1.0382 0 0 1.0384 -.322 -.322)" id="path257"/><path d="M6.45 10.475L3.6 13.323a6.88 6.88 0 004.826 2.02h.043a6.85 6.85 0 00-2.019-4.868z" fill="#7839b7" style="isolation:isolate" transform="matrix(1.0382 0 0 1.0384 -.322 -.322)" id="path259"/><path d="M8.467 1.587a6.88 6.88 0 00-4.858 2.015l2.848 2.847a6.85 6.85 0 002.019-4.861 6.88 6.88 0 00-.01 0z" fill="#fdc92b" style="isolation:isolate" transform="matrix(1.0382 0 0 1.0384 -.322 -.322)" id="path261"/><path d="M3.609 3.602a6.88 6.88 0 00-2.021 4.859 6.84 6.84 0 004.869-2.012z" fill="#f34f17" style="isolation:isolate" transform="matrix(1.0382 0 0 1.0384 -.322 -.322)" id="path263"/></g><circle cx="8.466" cy="8.466" r="5.292" fill="#fff" opacity=".35" id="circle267" paint-order="fill markers stroke"/><g fill="#fff" color="#000" id="g275" paint-order="fill markers stroke"><path d="M9.59 9.589a1.588 1.588 0 01-2.246 0 1.588 1.588 0 010-2.245 1.588 1.588 0 012.245 0 1.588 1.588 0 010 2.245z" opacity=".5" overflow="visible" style="isolation:auto;mix-blend-mode:normal" id="path269"/><path d="M9.477 4.152a.126.126 0 00-.095.017L6.857 5.737a3.175 3.175 0 00-.066.036 3.175 3.175 0 00-1.024 4.372 3.175 3.175 0 004.372 1.023 3.175 3.175 0 001.024-4.372 3.175 3.175 0 00-.058-.085c-.002-.006-.002-.011-.006-.017L9.557 4.21a.126.126 0 00-.08-.058zM8.85 6.931a1.588 1.588 0 01.965.703 1.588 1.588 0 01-.511 2.186 1.588 1.588 0 01-2.187-.512 1.588 1.588 0 01.511-2.186 1.588 1.588 0 011.222-.191z" overflow="visible" style="isolation:auto;mix-blend-mode:normal" id="path271"/><path d="M9.273 7.998l-.737.294-.294-.737-.247.098.295.737-.732.31.092.23.737-.295.294.739.252-.083-.3-.753.737-.293z" overflow="visible" style="isolation:auto;mix-blend-mode:normal" id="path273"/></g></svg>