<svg xmlns="http://www.w3.org/2000/svg" width="16" height="16"><path d="M3 3h7.172c-.09.25-.145.516-.164.79L10 4H3c-.55 0-1 .45-1 1v.191l5.5 2.75 3.469-1.734c.289.266.629.477 1.008.613L7.723 8.945a.48.48 0 01-.36.035l-.086-.035L2 6.31V11c0 .55.45 1 1 1h9c.55 0 1-.45 1-1V7c.352 0 .688-.059 1-.172V11c0 1.105-.895 2-2 2H3c-1.105 0-2-.895-2-2V5c0-1.105.895-2 2-2zm10 3a2.07 2.07 0 01-.223-.012l-.172-.027-.066-.016-.094-.023a1.823 1.823 0 01-.316-.121l-.168-.09a1.996 1.996 0 01-.953-1.547L11 4l.004-.09.008-.12.02-.153.042-.184.051-.156.063-.149L11.27 3a1.999 1.999 0 112.867 2.645l-.145.093-.144.074-.188.079-.058.02-.157.038-.113.024-.16.02A2.419 2.419 0 0113 6zm0 0" fill="#ddd"/></svg>