<svg xmlns="http://www.w3.org/2000/svg" width="16" height="16"><path d="M13.219 4.246L7.086 6.238a.467.467 0 01-.238.078L4.742 7H13.5c.277 0 .5.223.5.5v5a2.5 2.5 0 01-2.5 2.5h-7A2.5 2.5 0 012 12.5v-5c0-.105.035-.207.09-.285l-.195-.606A2.5 2.5 0 013.5 3.461l6.656-2.164a2.505 2.505 0 013.153 1.605l.23.715a.5.5 0 01-.32.63zm-3.746.164l1.285-2.226a1.582 1.582 0 00-.293.066l-1.242.402-1.309 2.266zm2.297-1.976c-.008.011-.012.023-.02.035l-.855 1.48 1.539-.5-.079-.238a1.474 1.474 0 00-.585-.777zm-3.97.683l-1.562.504L4.93 5.887l1.562-.508zM2.923 6.54l.59-.191 1.304-2.262-1.007.324a1.499 1.499 0 00-.961 1.89zM3 8v4.5A1.5 1.5 0 004.5 14h7a1.5 1.5 0 001.5-1.5V8zm0 0" fill="#ddd"/></svg>