<svg width="480" height="480" xmlns="http://www.w3.org/2000/svg"><defs><linearGradient x1="12.252%" y1="50%" x2="100%" y2="50%" id="a"><stop stop-color="#EEE" stop-opacity=".19" offset="0%"/><stop stop-color="#FFF" offset="100%"/></linearGradient><linearGradient x1="12.252%" y1="50%" x2="100%" y2="50%" id="b"><stop stop-color="#EEE" stop-opacity=".19" offset="0%"/><stop stop-color="#FFF" offset="100%"/></linearGradient></defs><g transform="translate(20 32)" fill="none" fill-rule="evenodd"><g fill="#EA94EF"><path d="M231.858 399.42c90.449 19.406 204.407-76.54 206.34-191.937C432.75 94.3 343.399-.805 222.142.005 100.885.815 21.087 119.894 15.802 207.483 9.637 307.28 108.647 389.25 231.859 399.42z" opacity=".2"/><path d="M194.118 415.317c104.323 4.611 196.41-91.093 194.117-176.417-10.861-111.697-86.91-199.537-194.117-191.805C86.909 54.827 0 133.812 0 223.512 2.858 295.06 90.762 402.92 194.118 415.317z" opacity=".3"/><path d="M207.923 378.452c121.252 20.967 204.937-70.66 204.464-171.255C419.926 112.254 303.59 9.604 196.306 13.034c-112.394 0-181.96 85.722-180.761 175.461 6.113 48.59 32.868 172.287 192.378 189.957z" opacity=".4"/><path d="M193.182 374.498c108.353 21.645 193.13-5.764 191.948-167.281-23.892-120.13-112.626-162.24-183.248-161.542-128.39 5.074-178.159 74.55-183.247 161.542 8.612 51.437 58.426 154.993 174.547 167.281z" opacity=".4"/><path d="M195.431 335.61c103.268-13.84 172.871-76.794 174.56-149.5C382.856 81.075 305.703 23.423 203.195 28.841c-92.133 21.464-143.7 78.4-156.442 157.27-.118 67.955-10.249 176.428 148.677 149.499z" opacity=".6"/></g><circle fill="url(#a)" cx="196.5" cy="209.5" r="77.5"/><path d="M287 163.358c20.462-8.777 48.852-10.192 58.703 6.938 9.69 16.841 6.322 36.652-10.101 59.43l-5.532 7.727c-8.845 12.12-14.167 21.45-15.963 27.982-1.8 6.537-.836 13.039 2.885 19.505 4.914 8.547 12.801 12.108 23.67 10.693 5.904-.737 9.398-.16 10.488 1.733 1.613 2.806.93 5.075-2.046 6.796-6.019 3.49-13.358 3.761-22.022.814-8.665-2.953-14.98-7.87-18.947-14.766-9.82-17.077-5.305-36.977 13.55-59.7l3.3-3.985c16.125-19.435 20.085-36.287 11.877-50.564-3.678-6.39-12.94-8.553-23.182-8.17-7.743.283-16.014 2.04-22.89 4.492" fill="url(#b)"/><path d="M195.12 106c40.456 0 75.412 23.622 91.945 57.867l3.785 8.914c4.123 11.122 6.385 23.151 6.385 35.716C297.235 265.11 251.517 311 195.12 311 138.721 311 93 265.11 93 208.497 93 151.891 138.721 106 195.12 106zm.185 129.747c-12.16 0-22.015 9.878-22.015 22.06 0 12.182 9.856 22.054 22.015 22.054 12.16 0 22.015-9.872 22.015-22.054 0-12.182-9.856-22.06-22.015-22.06zm-46.62-46.709c-12.16 0-22.015 9.876-22.015 22.057 0 12.18 9.856 22.057 22.015 22.057 12.16 0 22.015-9.876 22.015-22.057 0-12.18-9.856-22.057-22.015-22.057zm93.24 0c-12.16 0-22.015 9.876-22.015 22.057 0 12.18 9.856 22.057 22.015 22.057 12.16 0 22.015-9.876 22.015-22.057 0-12.18-9.856-22.057-22.015-22.057zm-49.21 12.975c-5.007 0-9.065 4.068-9.065 9.082 0 5.014 4.058 9.082 9.065 9.082s9.065-4.068 9.065-9.082c0-5.014-4.058-9.082-9.065-9.082zm2.59-62.279c-12.16 0-22.015 9.872-22.015 22.054 0 12.183 9.856 22.06 22.015 22.06 12.16 0 22.015-9.877 22.015-22.06 0-12.182-9.856-22.054-22.015-22.054z" fill="#FFF" fill-rule="nonzero"/></g></svg>