<svg width="480" height="480" xmlns="http://www.w3.org/2000/svg"><defs><linearGradient x1="50%" y1="0%" x2="50%" y2="100%" id="a"><stop stop-color="#FFF" stop-opacity=".201" offset="0%"/><stop stop-color="#FFF" offset="100%"/></linearGradient></defs><g fill="none" fill-rule="evenodd"><path d="M252.694 432.56C129.037 422.36 29.67 340.156 35.86 240.074c5.303-87.84 85.388-207.257 207.083-208.07 121.694-.812 211.368 94.564 216.834 208.07-1.94 115.726-116.309 211.945-207.083 192.484z" fill="#9F8FF8" opacity=".2"/><path d="M214.817 448.502C111.09 436.069 22.87 327.9 20 256.15c0-89.957 87.223-169.167 194.817-176.92 107.595-7.754 183.917 80.336 194.817 192.351 2.302 85.568-90.117 181.545-194.817 176.92z" fill="#AB9CF9" opacity=".3"/><path d="M228.672 411.531C68.587 393.811 41.736 269.761 35.601 221.033c-1.204-89.995 68.613-175.962 181.412-175.962 107.672-3.44 224.426 99.503 216.86 194.717.475 100.882-83.512 192.77-205.2 171.743z" fill="#9F8FF8" opacity=".4"/><path d="M213.878 407.566C97.338 395.243 47.345 291.391 38.702 239.808c5.107-87.24 55.054-156.914 183.908-162.003 70.876-.699 159.93 41.53 183.908 162.003 1.186 161.977-83.896 189.464-192.64 167.758z" fill="#9F8FF8" opacity=".4"/><path d="M216.135 368.567C56.637 395.573 66.804 286.79 66.923 218.64c12.788-79.094 64.54-136.193 157.005-157.718 102.877-5.433 180.308 52.383 167.395 157.718-1.694 72.914-71.548 136.047-175.188 149.926z" fill="#9F8FF8" opacity=".6"/><path d="M240 154c53.572 0 97 43.712 97 97.634l-.001.186h-.185c.122.562.186 1.145.186 1.743v18.254a8.183 8.183 0 11-16.366 0v-18.254c0-.598.064-1.181.186-1.743h-.141v-.186c0-44.849-36.121-81.206-80.679-81.206s-80.679 36.357-80.679 81.206l.002.186h-.143c.122.562.186 1.145.186 1.743v18.254a8.183 8.183 0 11-16.366 0v-18.254c0-.598.064-1.181.186-1.743H143v-.186C143 197.712 186.428 154 240 154z" fill="#FFF"/><path d="M132.315 215c12.877 0 23.315 10.439 23.315 23.315v20.37c0 12.876-10.438 23.315-23.315 23.315C119.44 282 109 271.561 109 258.685v-20.37C109 225.44 119.439 215 132.315 215zm173.37 0C318.56 215 329 225.439 329 238.315v20.37C329 271.56 318.561 282 305.685 282c-12.877 0-23.315-10.439-23.315-23.315v-20.37c0-12.876 10.438-23.315 23.315-23.315z" fill="url(#a)" transform="translate(20 32)"/></g></svg>