<svg xmlns="http://www.w3.org/2000/svg" width="16" height="16"><g fill="#ddd"><path d="M10 5.5a4.501 4.501 0 01-9 0 4.501 4.501 0 019 0zm-4-2c0-.277-.223-.5-.5-.5s-.5.223-.5.5V5H3.5c-.277 0-.5.223-.5.5s.223.5.5.5H5v1.5c0 .277.223.5.5.5s.5-.223.5-.5V6h1.5c.277 0 .5-.223.5-.5S7.777 5 7.5 5H6zm0 0"/><path d="M12.5 4h-1.707a5.273 5.273 0 00-.395-1H12.5C13.879 3 15 4.121 15 5.5v4.285c0 .399-.156.781-.438 1.063l-3.714 3.714A1.502 1.502 0 019.785 15H5.5A2.502 2.502 0 013 12.5v-2.102c.316.165.652.297 1 .395V12.5A1.5 1.5 0 005.5 14H9v-2a3 3 0 013-3h2V5.5A1.5 1.5 0 0012.5 4zM10 13.953a.697.697 0 00.14-.098l3.715-3.714c.04-.043.07-.09.098-.141H12c-1.105 0-2 .895-2 2zm0 0"/></g></svg>