<svg xmlns="http://www.w3.org/2000/svg" width="16" height="16"><path d="M6.992 2.59a.497.497 0 00-.402-.578.498.498 0 00-.582.402L5.539 5H3.496c-.277 0-.5.223-.5.5s.223.5.5.5h1.86l-.727 4H2.5c-.277 0-.5.223-.5.5s.223.5.5.5h1.945l-.437 2.41a.5.5 0 10.984.18L5.461 11h3.984l-.441 2.41a.506.506 0 00.402.582.502.502 0 00.582-.402l.473-2.59H12.5c.277 0 .5-.223.5-.5s-.223-.5-.5-.5h-1.855l.726-4H13.5a.501.501 0 000-1h-1.945l.437-2.406a.5.5 0 10-.984-.18L10.539 5H6.555zM6.372 6h3.983l-.73 4h-3.98zm0 0" fill="#ddd"/></svg>