<svg xmlns="http://www.w3.org/2000/svg" width="16" height="16"><path d="M5.832 9c1.027 0 1.883.71 2.11 1.664l6.226.004a.501.501 0 01.066.996l-.066.004H7.941a2.167 2.167 0 01-4.214 0H1.832a.504.504 0 01-.5-.5c0-.254.188-.465.434-.496l.066-.004h1.895A2.162 2.162 0 015.832 9zm0 1c-.508 0-.941.328-1.102.781l-.011.043-.028.098a1.253 1.253 0 00.016.543l.023.086.02.047a1.165 1.165 0 002.184-.047l.027-.086-.012.039A1.06 1.06 0 007 11.168a1.2 1.2 0 00-.02-.207l-.02-.09-.01-.047-.032-.09A1.17 1.17 0 005.832 10zm4.336-7.332c1.023 0 1.883.71 2.105 1.664h1.895c.273 0 .5.227.5.5a.498.498 0 01-.434.496l-.066.004h-1.895a2.166 2.166 0 01-4.215 0H1.833a.497.497 0 01-.066-.992l.066-.008h6.227a2.167 2.167 0 012.109-1.664zm0 1a1.16 1.16 0 00-1.102.781l-.015.04-.024.1c-.02.079-.027.161-.027.243 0 .106.012.203.04.3l.026.087.016.047a1.17 1.17 0 002.188-.047l.023-.086-.008.039a1.21 1.21 0 00.047-.34c0-.07-.004-.137-.016-.203l-.02-.094-.015-.047-.031-.086a1.165 1.165 0 00-1.082-.734zm0 0" fill="#ddd"/></svg>