<svg width="1080" height="1080" xmlns="http://www.w3.org/2000/svg"><defs><filter id="a" x="-.013" y="-.013" width="1.026" height="1.026" color-interpolation-filters="sRGB"><feGaussianBlur stdDeviation="5.183"/></filter></defs><circle cx="535.39" cy="559.91" fill="#fff" filter="url(#a)" stroke="#fff" stroke-width="2.553" r="518.29" transform="matrix(1.0175 0 0 1.0065 -9.236 -25.361)" stroke-opacity="0"/><path d="M501.558 1011.328c-32.22-2.764-55.675-6.364-81.165-12.458C282.705 965.95 166.384 873.7 103.757 747.738c-27.386-55.075-43.215-112.819-47.945-174.89-1.53-20.078-.663-66.604 1.6-85.795 6.622-56.163 21.913-107.977 46.332-157.014C165.79 205.455 280.687 113.451 416.096 79.934c40.313-9.98 74.651-14.102 117.42-14.093 87.955.019 172.71 23.28 246.58 67.674 133.771 80.39 218.488 216.911 230.302 371.157 1.553 20.271.675 68.271-1.584 86.56-7.065 57.192-21.952 107.373-46.48 156.66-66.688 134.016-194.18 229.583-342.226 256.527-28.345 5.16-45.376 6.63-80.891 6.982-18.188.18-35.13.15-37.648-.065zM297.549 645.647c34.6-9.283 56.921-33.299 65.957-70.964 1.919-8 2.18-11.959 2.133-32.267-.054-22.674-.12-23.396-3.256-35.107-8.559-31.965-26.869-53.566-54.265-64.016-20.579-7.85-47.453-9.156-70.601-3.43-15.577 3.853-35.053 16.171-44.828 28.352-17.45 21.744-26.082 54.92-22.868 87.883 4.929 50.553 31.62 82.86 75.174 90.99 12.012 2.241 41.88 1.423 52.554-1.441zm-44.23-41.315c-18.264-6.679-26.525-25.64-26.565-60.98-.031-26.44 4.361-42.896 14.175-53.11 12.63-13.145 38.266-13.903 52.452-1.55 5.692 4.957 10.81 15.029 13.489 26.548 2.84 12.216 2.569 47.163-.451 58.072-4.52 16.324-9.96 24.146-20.294 29.179-6.082 2.961-7.818 3.327-17.007 3.587-8.269.233-11.302-.102-15.798-1.746zm232.082 42.792c34.952-6.055 59.747-26.412 65.626-53.88 2.16-10.092 1.404-26.278-1.646-35.232-3.09-9.074-6.22-13.937-13.223-20.545-7.946-7.498-19.61-12.874-42.62-19.646-19-5.592-28.728-9.796-31.016-13.406-2.168-3.42-2.89-9.316-1.685-13.746 2.322-8.53 11.75-12.57 29.023-12.436 14.18.11 27.919 2.965 42.486 8.828 1.438.579 2.27-.334 4.268-4.675 3.793-8.243 7.714-22.739 7.965-29.45l.226-6.019-9.157-2.837c-27.314-8.462-58.815-10.072-82.418-4.214-3.358.833-10.378 3.555-15.602 6.048-7.45 3.555-11.093 6.093-16.893 11.766-12.513 12.241-17.506 26.12-16.54 45.984 1.481 30.436 14.433 42.842 57.684 55.256 19.34 5.55 29.829 10.136 32.94 14.403 2.482 3.402 3.4 12.733 1.661 16.885-1.862 4.448-8.093 9.529-14.882 12.136-4.853 1.865-8.58 2.383-19.723 2.746-15.684.51-25.56-.917-40.168-5.8-4.977-1.665-9.556-3.027-10.174-3.027-2.4 0-10.14 24.567-11.352 36.03l-.633 5.992 6.491 2.09c9.023 2.906 18.377 5.206 27.35 6.726 10.851 1.839 41.452 1.852 52.013.022zm236.986.027c11.78-1.551 31.406-5.702 41.396-8.754l6.407-1.958-.26-97.827-.26-97.828-5.087-.845c-6.553-1.089-36.983-1.098-44.261-.014l-5.596.834-.26 79.66c-.231 70.547-.44 79.727-1.824 80.253-3.766 1.43-20.933 2.802-27.618 2.207-17.581-1.562-28.302-8.147-32.892-20.203-4.44-11.657-4.422-11.38-5.012-78.004l-.566-63.912-5.596-.805c-7.376-1.06-37.792-1.063-44.262-.004l-5.087.833-.28 62.894c-.234 52.76-.023 64.64 1.31 73.726 6.163 42.039 28.095 64.087 69.262 69.632 13.576 1.828 46.999 1.892 60.487.116zm156.654-2.332c3.294-.766 3.62-1.193 4.433-5.82 1.138-6.476 1.137-40.756-.002-47.238-.868-4.938-.943-5.019-5.45-5.91-5.925-1.17-38.207-1.403-46.946-.338-8.24 1.003-7.802-.178-8.644 23.331-.525 14.66.568 33.97 2.004 35.389 2.113 2.09 46.107 2.562 54.605.585zm-6.668-89.865c3.883-.555 7.219-1.166 7.412-1.358.27-.267 4.257-173.671 4.334-188.507.011-2.177-.554-3.382-1.764-3.76-4.843-1.516-30.269-2.415-42.99-1.52-16.465 1.157-17.1 1.318-16.688 4.228.174 1.233 1.092 44.364 2.039 95.847.947 51.482 1.786 93.697 1.864 93.81.078.112 3.102.623 6.718 1.134 9.051 1.278 30.536 1.348 39.074.128z" fill="#f06ea8"/><path d="M595.199 1001.615c-1.673-2.906-13.762-23.627-26.866-46.047l-23.823-40.763-76.375-1.007 18.747-32.055c10.31-17.63 18.746-32.395 18.746-32.812 0-.827-28.225-49.46-29.334-50.54-.375-.366-24.72 40.553-54.101 90.931-29.38 50.379-53.698 92.045-54.038 92.59-.923 1.48-23.859-7.931-47.203-19.368-31.73-15.544-25.09-8.148-57.998-64.597-15.67-26.879-28.78-48.695-29.136-48.48-.355.217-5.616 8.962-11.69 19.435-8.845 15.253-11.356 18.877-12.615 18.21-2.878-1.523-31.89-31.567-41.8-43.287-19.54-23.107-37.779-49.1-51.537-73.455-7.145-12.647-14.497-26.67-14.497-27.654 0-.29 22.714-.528 50.476-.528 42.702 0 50.391-.216 49.931-1.4-.298-.771-14.736-25.718-32.084-55.437-30.407-52.092-31.596-53.951-33.042-51.692-2.658 4.152-39.558 67.528-43.534 74.771l-3.846 7.005-2.179-4.992c-1.198-2.745-4.63-12.238-7.624-21.095-28.17-83.302-32.366-171.618-12.251-257.895C95.133 313.038 169.49 208.2 272.806 142.003c63.643-40.774 133.313-65.095 211.518-73.84 22.063-2.466 75.48-2.466 97.542 0 60.032 6.713 111.854 21.61 163.38 46.964 48.111 23.676 86.485 50.927 124.735 88.583 39.524 38.906 68.026 78.056 91.965 126.316 34.772 70.102 51.036 143.023 49.046 219.92-.533 20.573-3.572 55.1-5.333 60.59-.323 1.003-3.223 6.012-6.445 11.129-3.222 5.117-13.56 22.552-22.972 38.744-9.412 16.193-17.457 29.44-17.877 29.44-.42 0-9.114-14.38-19.32-31.956-10.207-17.576-19.123-32.561-19.815-33.3-1.02-1.09-3.47 2.43-12.964 18.62-20.366 34.731-51.642 88.868-51.642 89.39 0 .276 17.826.62 39.613.765l39.612.263-8.564 14.594c-4.71 8.027-8.57 14.924-8.579 15.326-.008.403 8.24.856 18.332 1.007l18.345.274-6.486 11.173c-12.536 21.597-30.158 46.372-48.61 68.34-10.97 13.062-43.374 45.093-56.38 55.733-9.9 8.098-10.211 8.265-11.59 6.209-.78-1.162-17.577-29.84-37.325-63.732-19.748-33.89-36.198-61.619-36.554-61.619-.357 0-10.164 16.306-21.793 36.234a47851.129 47851.129 0 01-42.1 71.965l-20.954 35.73 136.6 1.007-7.562 5.128c-44.135 29.932-101.882 55.078-155.606 67.761-15.252 3.6-39.67 8.134-43.811 8.134-2.526 0-3.437-.8-6.018-5.284zm-313.93-353.06c42.73-4.747 70.937-29.023 81.476-70.12 7.211-28.121 4.982-62.904-5.65-88.169-10.705-25.433-32.042-43.62-60.055-51.188-7.778-2.1-10.748-2.33-29.508-2.282-24.276.062-30.732 1.308-46.477 8.975-31.932 15.548-50.04 47.135-51.93 90.587-1.515 34.832 8.016 64.94 26.966 85.188 19.564 20.902 50.85 30.823 85.177 27.01zm-22.76-43.264c-14.733-3.08-23.924-13.569-28.879-32.957-1.98-7.744-2.242-11.335-2.191-29.936.05-18.478.335-22.138 2.27-29.098 4.547-16.366 10.211-24.577 20.33-29.474 4.76-2.303 7.392-2.837 15.613-3.163 18.216-.724 27.862 4.48 35.19 18.983 6.12 12.113 7.82 21.467 7.86 43.255.036 19.584-1.1 27.396-5.738 39.457-5.75 14.95-16.172 22.568-32.057 23.43-4.374.238-9.953.014-12.398-.497zm228.541 41.773c33.496-6.286 56.972-25.23 63.782-51.468.964-3.712 1.6-10.35 1.59-16.607-.026-18.446-4.376-30.498-14.707-40.753-8.32-8.258-18.232-13.05-41.384-20.011-30.481-9.164-34.454-11.543-35.256-21.108-.545-6.507.987-10.863 4.755-13.514 10.41-7.326 36.273-6.737 60.076 1.367 4.155 1.415 7.9 2.573 8.32 2.573 2.16 0 10.616-27.149 11.272-36.186.32-4.411.261-4.505-3.822-6.039l-4.147-1.558 64.65-110.715 39.74-.263c21.857-.145 39.74.083 39.74.506s-5.472 10.165-12.162 21.651l-12.162 20.883h36.691c33.913 0 36.642.128 36.037 1.688-.36.928-17.808 31.08-38.774 67.004-20.965 35.925-38.12 65.738-38.12 66.252 0 .552 11.428.934 27.906.934h27.905l.33-31.679c.328-31.3.359-31.704 2.62-33.94l2.29-2.264v156.27l-7.275 1.213c-9.7 1.619-30.339.782-36.675-1.486-6.463-2.314-13.381-8.568-16.537-14.949-5.784-11.692-5.95-13.85-6.308-81.724l-.329-62.403-3.83-.892c-5.008-1.165-37.478-1.36-46.39-.278l-6.945.843.417 65.082c.357 55.55.67 66.472 2.145 74.56 3.675 20.175 10.885 35.344 22.038 46.365 16.652 16.456 37.49 22.434 78.323 22.465 25.611.02 44.872-2.736 71.225-10.19l6.613-1.871.26-96.498c.248-92.111.34-96.384 2.035-94.016 1.568 2.191 1.835 6.133 2.284 33.683l.509 31.201 21.805.272c11.992.15 22.204-.122 22.691-.605 1.169-1.156 2.191.669-43.4-77.464l-39.523-67.732-1.967 3.199c-1.089 1.771-2.34 2.802-2.802 2.31-.46-.49-5.704-9.268-11.654-19.51l-10.82-18.62 36.536-1.007-13.16-22.456c-7.238-12.35-13.16-22.654-13.16-22.898 0-.243 26.46-.442 58.799-.442h58.799l21.544 36.943c11.85 20.318 21.447 37.037 21.33 37.153-.12.115-3.651-.184-7.848-.665-10.651-1.221-28.78-1.165-40.485.126-5.434.6-9.969 1.178-10.077 1.285-.108.107.72 43.426 1.839 96.265 1.45 68.435 2.367 96.274 3.187 96.775 3.717 2.273 46.979 2.314 51.256.05 1.954-1.034 2.055-3.522 3.867-94.993 1.023-51.661 2.163-94.74 2.533-95.732.618-1.653.861-1.605 2.94.583 1.635 1.722 2.313 3.764 2.437 7.339.156 4.528 2.745 9.374 30.197 56.535l30.027 51.583h48.466l-.62-5.787c-1.403-13.099-11.604-57.859-14.432-63.318-.528-1.02-1.26-3.438-1.63-5.376-.675-3.552-3.98-12.813-8.314-23.304-2.536-6.138-2.4-6.891 1.236-6.891 1.306 0 2.374-.283 2.374-.628 0-.346-1.627-4.309-3.615-8.807-1.989-4.499-4.814-10.897-6.28-14.218-4.17-9.457-13.799-28.413-15.692-30.896l-1.714-2.247-3.77 4.605-4.34-7.874c-2.388-4.33-4.898-8.761-5.578-9.846-2.932-4.675-7.913-12.204-8.727-13.189-.486-.588-1.419-2.06-2.074-3.271-1.038-1.919-.933-2.201.82-2.201 1.106 0 2.27-.416 2.587-.924.505-.807-3.66-7.465-10.123-16.18-1.119-1.508-2.94-4.053-4.046-5.653-1.106-1.6-2.269-3.136-2.583-3.412-.315-.277-2.844-3.424-5.62-6.994-2.777-3.57-5.735-7.245-6.574-8.168-.84-.923-3.587-4.089-6.105-7.034-2.519-2.945-5.266-6.077-6.105-6.959-.84-.882-4.96-5.384-9.158-10.004-7.084-7.799-21.775-21.572-34.452-32.303a1389.113 1389.113 0 01-8.264-7.045c-1.602-1.384-3.536-2.97-4.298-3.523-.762-.554-3.66-2.824-6.439-5.047-2.779-2.222-7.113-5.368-9.631-6.993-2.519-1.624-5.037-3.468-5.597-4.098-.56-.63-2.849-2.351-5.087-3.825a4460.863 4460.863 0 01-8.074-5.33l-4.003-2.65-3.439 4.2-4.592-2.88c-2.526-1.585-6.084-5.075-7.907-7.756-3.9-5.736-6.001-7.6-12.177-10.804-2.518-1.306-7.004-3.64-9.969-5.185-6.576-3.427-6.152-3.74-14.442 10.673l-6.043 10.506 23.671 1.007 17.193 29.59-29.371 50.32c-16.154 27.677-29.676 50.006-30.05 49.621-.373-.385-9.84-16.424-21.039-35.642l-20.36-34.943 25.434-43.564c13.988-23.96 25.516-43.955 25.617-44.43.18-.847-4.07-2.744-23.727-10.591-11.78-4.703-15.774-5.778-14.621-3.933.446.714 5.3 8.998 10.785 18.409l9.974 17.11-104.426 1.007 20.61 35.228c11.334 19.375 20.628 35.68 20.652 36.234.023.553-10.147 18.444-22.601 39.756l-22.644 38.75-221.112 1.007 41.655 71.352c22.911 39.243 41.408 71.596 41.106 71.895-.302.3-3.863 1.374-7.912 2.388-22.142 5.547-38.824 19.136-46.25 37.672-2.594 6.472-2.776 7.936-2.802 22.522-.024 13.686.256 16.404 2.287 22.143 3.085 8.717 8.003 15.105 16.284 21.149 8.688 6.341 18.821 10.539 39.907 16.526 9.234 2.623 19.765 6.202 23.402 7.954 5.519 2.658 6.993 3.93 8.904 7.677 4.438 8.707 1.828 17.944-6.559 23.216-8.308 5.222-14.355 6.517-30.326 6.494-15.44-.022-23.125-1.326-38.883-6.595-4.83-1.615-8.869-2.825-8.976-2.69-.106.136-1.448 3.384-2.981 7.218-3.254 8.139-7.14 22.976-7.99 30.507l-.595 5.27 9.87 3.014c12.956 3.955 22.966 5.987 34.8 7.066 12.529 1.141 33.191.426 43.486-1.506zm393.213-2.052c2.43-.592 2.831-1.308 3.562-6.348 1.057-7.298 1.051-41.464-.008-47.668-.758-4.446-1.047-4.796-4.568-5.536-5.95-1.25-50.126-.868-53.265.46-2.53 1.071-2.753 1.71-3.51 10.012-1.418 15.586-.46 44.27 1.589 47.548.453.725 3.51 1.685 6.793 2.133 6.655.909 45.129.44 49.407-.602zM140.327 512.959c-.012-.415-6.633-12.078-14.713-25.917l-14.69-25.163 46.423-1.006-9.008-15.41c-4.954-8.477-9.007-15.837-9.007-16.356 0-.578 22.926-.945 59.015-.945 32.458 0 59.015-.16 59.015-.357 0-.197-10.68-18.654-23.734-41.015-13.054-22.362-34.3-58.787-47.214-80.944-12.914-22.157-24.494-41.986-25.733-44.063l-2.253-3.778-5.224 7.179c-2.873 3.948-5.682 7.914-6.241 8.813-.56.899-1.54 2.097-2.18 2.664-.638.566-2.47 3.027-4.07 5.468a646.63 646.63 0 01-4.434 6.685c-1.563 2.302-6.432 10.105-11.494 18.423-1.565 2.571-3.55 6.033-4.413 7.694-.862 1.66-2.874 5.284-4.47 8.052-3.534 6.126-15.227 29.487-15.258 30.485-.013.394-1.376 3.434-3.03 6.756-1.654 3.321-3.017 6.623-3.03 7.337-.012.714-.988 3.17-2.167 5.456-2.152 4.172-3.373 7.42-9.29 24.707-2.595 7.586-3.51 9.218-4.915 8.777-1.424-.447-2.113.918-3.934 7.791-1.214 4.584-2.636 9.467-3.16 10.85-.523 1.384-1.65 5.914-2.502 10.065a606.466 606.466 0 01-3.091 14.091c-2.745 11.648-5.625 30.325-7.2 46.704-1.27 13.183-1.305 16.153-.204 16.844 1.662 1.042 82.236 1.154 82.206.114zM96.35 436.961l-4.828-8.297 5.082-.304c2.795-.167 7.369-.167 10.164 0l5.082.304-4.828 8.297c-2.655 4.564-5.056 8.297-5.336 8.297-.28 0-2.681-3.733-5.336-8.297zm411.141 59.52c1.774-3.112 3.226-6.132 3.226-6.71 0-.58-2.312-1.543-5.138-2.143-5.446-1.155-14.195-1.476-14.195-.52 0 .768 1.55 3.664 6.34 11.847 4.537 7.75 3.836 7.928 9.767-2.475zm-89.502-321.829c29.175-50.028 53.046-91.18 53.046-91.448 0-.269-1.03-.24-2.29.062-1.259.303-7.325 1.267-13.481 2.142-33.298 4.733-71.668 15.847-107.713 31.2-4.613 1.964-5.49 1.502-3.86-2.036 1.12-2.432 1.052-2.549-1.106-1.89-7.565 2.313-53.685 25.962-53.685 27.529 0 .973 18.065 32.286 19.797 34.314.709.83 2.517 3.622 4.02 6.204l2.73 4.694-9.728 16.653c-5.35 9.159-9.994 17.341-10.321 18.183-.518 1.335 2.109 1.566 20.482 1.804l21.076.272 12.348 21.136c14.927 25.553 13.933 24.016 14.87 22.986.422-.464 24.638-41.775 53.813-91.803zm179.019 45.92c-.795-1.246-15.37-26.157-32.388-55.358-17.02-29.2-31.204-53.092-31.522-53.092-.317 0-14.502 23.892-31.52 53.092-17.02 29.201-31.594 54.112-32.389 55.358l-1.444 2.265h130.708zm3.102-116.633c5.07-8.653 9.352-16.313 9.514-17.022.396-1.732-15.447-4.605-30.673-5.562l-11.636-.732 2.34 3.923c1.288 2.158 6.49 11.052 11.561 19.766 5.072 8.713 9.323 15.733 9.448 15.6.125-.132 4.375-7.32 9.446-15.973zm367.104 629.435c-.273-.438.607-3.05 1.956-5.804 1.348-2.755 2.456-5.775 2.46-6.711.011-1.84 1.802-3.403 2.786-2.43.67.662-4.725 14.528-5.941 15.272-.42.257-.988.11-1.26-.328zm36.05-112.386c-.045-1.061.196-1.656.534-1.321.338.334.374 1.202.08 1.929-.325.803-.566.564-.615-.608z" fill="#ea68a2"/><path d="M571.674 960.64l-26.87-46.262-37.901-.036c-20.847-.02-37.902-.308-37.902-.64s8.356-14.921 18.57-32.421c10.213-17.5 18.421-32.288 18.24-32.862-.635-2.02-29.186-50.788-29.756-50.828-.317-.021-24.535 41.064-53.816 91.301-29.282 50.237-53.748 91.861-54.368 92.498-1.574 1.616-23.284-7.127-47.934-19.302-30.504-15.067-24.132-7.877-56.964-64.283-15.662-26.907-28.711-48.914-29-48.906-.287.008-5.495 8.613-11.571 19.123-6.077 10.51-11.567 19.11-12.201 19.11-1.833 0-30.668-29.48-42.286-43.234-18.077-21.397-33.011-42.133-46.063-63.959-6.142-10.272-20.168-35.88-20.168-36.824 0-.229 22.945-.294 50.99-.146 43.31.23 50.91.059 50.446-1.135-1.137-2.93-63.882-109.86-64.611-110.111-.696-.238-45.96 76.415-47.554 80.53-.375.968-1.032 1.761-1.46 1.761-.835 0-9.6-23.543-13.676-36.737-9.004-29.142-14.9-58.26-18.447-91.088-1.82-16.861-3.039-55.299-2.072-65.423l.72-7.549 85.456.547-2.529-4.3c-1.39-2.364-8.062-13.81-14.825-25.435l-12.296-21.136 22.91-.27c12.6-.15 22.91-.645 22.91-1.103 0-.457-4.073-7.808-9.05-16.336l-9.05-15.505 59.417-.26c32.679-.143 59.415-.443 59.415-.667 0-.383-23.415-40.713-75.139-129.415-12.428-21.313-23.232-39.578-24.01-40.59-1.339-1.742-1.582-1.667-4.551 1.407-1.726 1.786-3.137 3.633-3.137 4.104 0 .471-.801 1.712-1.78 2.757-.98 1.045-3.384 4.24-5.343 7.099-1.958 2.859-4.706 6.718-6.105 8.576-1.399 1.859-4.833 7.07-7.63 11.583-2.8 4.513-6.077 9.721-7.285 11.575-1.207 1.854-4.366 7.375-7.018 12.27a7316.464 7316.464 0 01-7.569 13.93c-1.51 2.768-5.383 10.92-8.606 18.117-3.223 7.197-6.712 14.896-7.754 17.11-1.042 2.215-2.883 6.744-4.09 10.066a6599.871 6599.871 0 01-7.892 21.64c-1.118 3.044-2.601 5.535-3.297 5.535-1.24 0-2.514 3.255-5.033 12.862-.694 2.646-1.47 4.603-1.727 4.35-.786-.778 6.77-26.483 12.16-41.367 16.213-44.776 38.33-85.66 67.243-124.303 25.532-34.123 62.948-71.052 98.337-97.056 145.33-106.79 339.693-123.014 501.17-41.835 46.85 23.553 83.862 50.194 121.612 87.537 49.253 48.721 83.907 101.576 109.503 167.009 14.309 36.582 24.042 78.075 29.06 123.89 1.938 17.684 1.612 72.485-.537 90.585-2.851 24.005-2.855 24.018-9.096 33.813-3.141 4.93-13.719 22.702-23.507 39.492l-17.796 30.53-5.923-10.019c-3.258-5.51-12.104-20.702-19.66-33.762-7.554-13.06-14.168-23.618-14.697-23.464-.913.264-43.54 72.403-45.288 76.642-.456 1.107-5.003 9.15-10.104 17.872-5.101 8.722-9.275 16.083-9.275 16.356 0 .273 17.857.496 39.683.496 21.825 0 39.682.175 39.682.389 0 .214-3.834 6.894-8.52 14.846l-8.52 14.457 37.409.548-2.06 3.993c-9.59 18.597-32.27 51.056-52.737 75.476-17.859 21.308-65.256 66.112-67.35 63.666-.36-.418-9.724-16.386-20.813-35.484-43.143-74.31-51.782-89.136-52.915-90.804-.996-1.466-3.898 2.952-19.17 29.189-9.9 17.004-20.626 35.346-23.84 40.76-22.894 38.58-42.98 73.305-42.98 74.307 0 .91 15.99 1.015 68.173.448 37.494-.408 68.172-.526 68.172-.262 0 .263-5.328 3.973-11.84 8.245-52.05 34.145-117.205 59.873-178.408 70.444-8.1 1.4-15.698 2.544-16.883 2.544-1.774 0-6.905-8.178-29.025-46.263zM293.947 646.644c17.59-3.798 31.779-11.283 43.83-23.122 13.473-13.238 21.753-29.338 26.576-51.673 2.971-13.76 3.231-41.955.511-55.482-7.69-38.254-26.258-62.071-57.757-74.087-12.753-4.865-24.101-6.352-44.148-5.786-14.89.421-18.561.863-26.375 3.174-31.228 9.238-51.089 28.956-61.443 61.005-8.532 26.41-8.333 59.355.518 85.818 7.968 23.823 23.492 42.346 44.056 52.567 10.748 5.342 18.313 7.371 37.139 9.962 6.368.876 28.64-.55 37.094-2.375zm-35.206-41.37c-6.415-1.255-13.793-5.368-18.109-10.092-8.323-9.114-12.655-23.795-13.523-45.835-1.227-31.143 5.287-53.543 18.277-62.851 6.382-4.574 13.663-6.287 24.69-5.81 15.196.658 24.575 6.276 30.788 18.443 9.965 19.515 11.053 59.635 2.255 83.077-6.718 17.897-24.25 27.01-44.379 23.07zm218.315 43.28c32.488-3.298 58.909-19.087 69.702-41.658 4.204-8.789 5.675-16.115 5.675-28.253 0-18.96-4.652-31.332-15.587-41.45-8.543-7.905-17.318-11.986-41.902-19.492-30.128-9.197-33.156-11.071-33.88-20.965-.601-8.229 1.392-11.644 8.77-15.03 4.897-2.247 7.513-2.71 17.15-3.038 12.847-.435 22.718 1.136 37.272 5.932 4.929 1.625 9.32 2.954 9.757 2.954 2.58 0 12.316-31.394 12.316-39.709 0-.681-1.8-1.773-4-2.425l-4-1.185 11.886-20.37a90300.088 90300.088 0 0032.235-55.32l20.35-34.95 78.686-.036-12.124 20.696c-6.669 11.382-12.125 21.12-12.125 21.64 0 .57 14.303.944 36.121.944 19.867 0 36.122.237 36.122.527 0 .29-16.834 29.391-37.408 64.668-20.573 35.277-37.964 65.385-38.643 66.908l-1.236 2.768h58.888l.296-31.152c.221-23.253.619-31.471 1.568-32.41 1.018-1.005 1.272 14.06 1.272 75.322v76.577l-2.798.636c-6.485 1.472-27.593 1.865-34.175.637-8.3-1.55-16.264-6.128-20.701-11.9-8.328-10.834-9.81-26.588-9.314-99.048l.342-50.042-5.597-.796c-7.382-1.05-38.593-1.02-46.123.042l-5.932.838.458 66.094c.39 56.255.71 67.357 2.15 74.57 3.931 19.7 11.13 34.552 21.975 45.34 16.365 16.28 37.26 22.365 77.33 22.523 10.961.043 24.167-.5 29.507-1.215 10.357-1.385 31.926-5.931 42.735-9.007l6.614-1.882.509-94.52c.28-51.985.846-93.387 1.258-92.003.412 1.384.755 15.764.763 31.956l.014 29.44h24.42c13.431 0 24.42-.244 24.42-.543 0-1.309-6.64-12.92-44.012-76.957-21.807-37.366-39.892-68.34-40.19-68.83-.298-.49-1.508.693-2.69 2.63l-2.149 3.522-21.76-37.469 36.692-.549-3.014-5.26c-1.658-2.894-7.848-13.528-13.756-23.63l-10.741-18.37h116.422l19.777 33.97a42887.933 42887.933 0 0021.58 37.04l1.801 3.07-6.848-.754c-10.222-1.125-31.068-.998-41.444.252-5.036.606-9.261 1.199-9.389 1.316-.127.117.688 43.421 1.812 96.232 1.484 69.8 2.364 96.217 3.222 96.74 3.338 2.04 44.827 2.343 51.226.373 2.075-.639 2.115-1.397 3.343-64.239 2.23-114.046 2.508-124.574 3.272-123.769.414.436 2.057 3.778 3.65 7.427 1.593 3.649 15.906 28.9 31.805 56.113l28.908 49.478h52.584v-2.768c.013-8.007-10.36-52.877-16.463-71.21a551.48 551.48 0 01-3.395-10.568c-.76-2.49-2.558-7.607-3.993-11.368-3.03-7.957-3.13-8.761-1.078-8.761.84 0 1.526-.17 1.526-.377 0-.968-3.376-9.676-5.694-14.685a994.598 994.598 0 01-4.377-9.598c-3.606-8.07-15.869-31.893-16.668-32.382-.453-.276-1.47.028-2.26.677-1.174.964-1.875.28-3.833-3.735-1.319-2.703-4.016-7.384-5.995-10.403-9.874-15.063-11.037-17.34-9.448-18.49 1.28-.925.733-2.181-3.542-8.137-2.781-3.874-6.989-9.761-9.351-13.083-4.91-6.903-25.999-32.176-33.813-40.522-12.703-13.567-25.69-25.782-40.346-37.948-5.876-4.877-11.37-9.496-12.21-10.263-2.325-2.126-8.997-7.148-15.647-11.778-3.29-2.29-7.25-5.07-8.799-6.178-11.662-8.333-12.438-8.735-13.953-7.237-1.278 1.264-2.42.815-8.856-3.486-4.064-2.716-8.859-6.963-10.655-9.437-1.797-2.475-3.81-4.512-4.475-4.528-.665-.016-5.1-2.234-9.857-4.93-7.852-4.449-8.81-4.76-10.392-3.371-.959.84-2.423 1.27-3.255.955-1.184-.45-1.335-.101-.696 1.607.629 1.682-.32 4.083-4.14 10.482-7.426 12.435-7.892 11.39 5.087 11.39h11.242l5.605 9.421c3.083 5.181 7.09 12.112 8.903 15.403l3.298 5.982-28.901 49.504c-15.896 27.226-29.225 49.17-29.62 48.761-.396-.408-9.663-16.099-20.593-34.869-17.246-29.617-19.726-34.406-18.76-36.234.612-1.158 12.265-21.233 25.896-44.61 13.631-23.378 24.783-43.116 24.783-43.863 0-.747-2.175-2.31-4.833-3.473-20.61-9.016-36.34-14.755-38.35-13.992-.858.326-4.886-.504-8.95-1.843-16.406-5.408-40.205-11.313-54.959-13.636-4.895-.771-7.885-1.713-7.885-2.484 0-.805-2.594-1.49-7.377-1.95-4.057-.391-13.558-1.575-21.113-2.631-17.503-2.448-18.722-2.461-17.877-.192.361.97 5.964 10.938 12.452 22.154l11.795 20.391-12.28 21.117 24.734.016 42.197 72.367-45.25 77.569-111.162.008c-61.14.004-111.162.191-111.162.415 0 .225 18.61 32.269 41.356 71.21 22.745 38.942 41.536 71.482 41.759 72.312.304 1.137-1.43 1.94-7.015 3.248-4.08.955-11.65 3.804-16.82 6.33-16.62 8.116-27.05 20.635-31.393 37.68-2.337 9.173-1.554 30.4 1.422 38.53 6.505 17.767 20.666 27.37 54.636 37.048 28.707 8.178 34.137 11.514 35.718 21.943 1.445 9.53-5.71 18.083-18.26 21.832-13.923 4.16-36.794 2.556-57.016-3.997-6.087-1.973-11.194-3.587-11.35-3.587-.155 0-1.734 3.963-3.508 8.807-3.397 9.277-6.549 21.696-7.53 29.67l-.585 4.758 9.898 3.027c23.093 7.06 45.446 9.365 68.322 7.043zm403.713-3.508c1.8-.55 2.388-1.775 3.053-6.367 1.065-7.355 1.067-41.513.003-47.672-.768-4.443-1.06-4.796-4.58-5.536-4.869-1.023-47.392-1.028-52.25-.007l-3.724.784-.856 9.785c-1.45 16.585-.504 44.02 1.637 47.446.457.731 3.517 1.698 6.8 2.149 6.752.926 46.501.462 49.917-.582zM508.73 494.493c1.723-3.376 2.878-6.39 2.567-6.697-.891-.882-9.731-2.13-15.544-2.197l-5.293-.06 1.223 2.768c.672 1.523 3.22 6.314 5.662 10.647l4.44 7.88 1.906-3.102c1.049-1.706 3.316-5.863 5.04-9.24zM383.262 235.168c67.444-115.415 90.02-154.367 89.672-154.709-.217-.214-4.283.04-9.036.567-28.198 3.122-81.587 17.287-106.827 28.344-2.518 1.103-6.349 2.625-8.512 3.383-3.758 1.316-3.91 1.288-3.402-.632.55-2.08-.715-2.775-1.822-1.003-.346.554-1.316 1.007-2.155 1.007-2.171 0-40.606 19.079-49.892 24.767-3.085 1.89-3.157 2.085-1.872 5.107.734 1.728 6.22 11.397 12.192 21.489 5.972 10.09 11.327 19.367 11.902 20.614.9 1.953-.373 4.687-9.194 19.748l-10.238 17.481 42.07 1.007 13.26 22.866c7.293 12.576 13.56 22.881 13.928 22.898.367.017 9.335-14.801 19.93-32.932zm211.213-19.197c-12.714-22.426-60.957-104.766-61.382-104.766-.424 0-48.668 82.345-61.381 104.766l-3.894 6.868h130.556zM971.632 725.14c0-.52.452-1.223 1.006-1.561.576-.353.747.05.4.947-.677 1.743-1.406 2.062-1.406.615zM62.15 457.35c0-1.384.23-1.95.513-1.258.282.692.282 1.824 0 2.516s-.513.126-.513-1.258zm34.553-20.285c-2.318-3.96-4.037-7.376-3.821-7.59.216-.214 4.34-.257 9.164-.096l8.77.292-4.256 7.298c-2.34 4.013-4.567 7.297-4.949 7.297-.382 0-2.59-3.24-4.908-7.2zm-30.44.658c0-1.107.366-3.145.814-4.529.645-1.992.815-2.097.815-.503 0 1.107-.367 3.145-.815 4.53-.645 1.992-.815 2.096-.815.502zm1.912-8.974c-.044-1.061.196-1.656.534-1.321.338.334.375 1.202.08 1.929-.324.803-.565.564-.614-.608z" fill="#e6649e"/><path d="M572.274 961.396c-14.55-24.997-26.604-45.81-26.788-46.253-.185-.443 11.506-.926 25.978-1.073l26.312-.269-32.084-55.085c-17.645-30.298-32.313-55.088-32.593-55.091-.28-.002-6.232 9.939-13.227 22.091-6.995 12.153-12.957 22.111-13.248 22.128-.29.018-6.792-10.725-14.447-23.873-7.656-13.148-14.515-24.687-15.242-25.644-1.162-1.527-7.978 9.667-55.561 91.258l-54.236 92.999-14.52-5.86c-15.753-6.358-36.465-16.119-51.052-24.059l-9.209-5.013-28.784-49.386c-15.831-27.162-29.1-49.386-29.485-49.386-.386 0-5.725 8.602-11.864 19.116-6.14 10.514-11.61 19.118-12.156 19.123-.546.005-8.44-7.489-17.542-16.652l-16.55-16.662 1.954-2.714c2.364-3.285 110.368-188.427 111.253-190.721.393-1.014.172-1.451-.594-1.176-.67.242-5.684.835-11.14 1.32-19.669 1.746-41.43-1.92-58.077-9.784-13.233-6.251-20.012-11.484-31.418-24.25-4.008-4.487-11.827-18.898-15.854-29.224-7.594-19.468-9.627-52.317-4.72-76.284 1.44-7.035 3.934-16.188 5.542-20.34 2.742-7.077 9.835-21.136 10.665-21.136.206 0-1.383 3.737-3.53 8.304-11.686 24.847-14.607 61.014-7.233 89.534 10.076 38.97 35.312 63.196 73.337 70.4 10.09 1.91 35.403 1.616 45.787-.534 37.128-7.689 62.18-32.442 71.217-70.368 6.116-25.67 4.805-56.84-3.37-80.094-1.388-3.947-2.352-7.177-2.143-7.177 1.612 0 7.768 17.042 9.554 26.446 1.592 8.385 1.921 8.2 9.748-5.474l5.78-10.099 2.288 3.874c13.247 22.431 16.945 28.494 17.643 28.92.45.274-.072-2.758-1.159-6.738-3.959-14.503-2.11-38.83 3.704-48.755 1.054-1.799 2.02-3.27 2.145-3.27s-.633 3.283-1.685 7.296c-1.205 4.596-1.944 11.023-1.997 17.362-.154 18.5 3.681 29.326 13.928 39.321 8.538 8.329 20.347 13.897 44.478 20.972 27.533 8.072 32.18 10.613 34.414 18.82 1.4 5.145.765 10.158-1.755 13.843l-1.82 2.661-.536-5.2c-.297-2.885-1.33-6.069-2.319-7.15-3.982-4.352-17.252-9.464-36.842-14.192-10.51-2.537-23.118-7.995-31.627-13.69-4.2-2.812-12.518-11.48-14.317-14.923-.835-1.598-1.729-2.698-1.985-2.444-.519.513 6.259 12.612 25.362 45.277 11.89 20.33 12.61 21.854 10.057 21.28-10.457-2.35-19.345-4.779-23.696-6.475-2.792-1.089-5.474-1.98-5.96-1.98-2.104 0-9.987 25.843-11.723 38.435l-.65 4.717 9.51 3.013c17.996 5.702 30.646 7.53 52.153 7.538 14.78.005 21.25-.413 27.473-1.776 34.344-7.524 56.375-25.475 63.062-51.384 1.777-6.883 2.05-25.856.47-32.633-.565-2.426-.795-4.64-.512-4.92 1.686-1.668 5.65 18.218 5.657 28.376.006 9.7-2.88 22.394-6.838 30.077-3.336 6.474-11.719 17.854-13.75 18.667-.487.194-1.89 1.375-3.12 2.624-8.758 8.896-29.498 17.715-48.741 20.725l-7.842 1.226 1.634 3.136c.898 1.725 6.424 11.289 12.28 21.253 34.39 58.518 178.276 305.232 178.795 306.58.52 1.344-2.497 2.373-18.504 6.31-18.243 4.486-45.152 9.732-49.6 9.67-1.673-.025-7.327-9.032-28.542-45.479zm185.368-17.134a3854.107 3854.107 0 01-8.278-14.104l-2.781-4.781h30.825c17.453 0 30.406.378 29.858.872-3.005 2.713-33.102 21.5-41.915 26.166-2.075 1.098-2.554.591-7.709-8.152zm53.474-71.545a64927.118 64927.118 0 01-37.265-64.095c-9.157-15.777-17.048-28.564-17.537-28.418-.798.24-16.407 26.582-38.474 64.932-4.389 7.627-8.323 14.077-8.742 14.333-.42.257-3.903-4.96-7.743-11.591l-6.98-12.058-40.955-.011c-22.525-.006-40.954-.289-40.954-.628 0-.34 9.005-16.045 20.01-34.901 11.007-18.857 19.996-34.772 19.975-35.367-.02-.594-8.338-15.233-18.485-32.53-10.146-17.297-18.448-31.904-18.448-32.46 0-.658 13.277-1.01 38.08-1.01h38.08l8.087-13.84c4.448-7.61 9.504-16.34 11.235-19.397l3.15-5.56-20.572-.078c-36.217-.139-59.414-5.188-73.085-15.909-1.46-1.145-3.683-2.762-4.939-3.593-3.57-2.361-13.706-15.043-16.704-20.899-4.782-9.34-8.667-21.591-10.265-32.37-2.229-15.03-2.254-136.13-.03-139.975 1.274-2.204 1.46 4.473 1.494 53.848.022 31.797.513 61.367 1.126 67.842 4.44 46.882 26.34 71.899 68.304 78.023 32.521 4.747 69.213 1.953 103.073-7.85l8.14-2.356.517-90.98c.284-50.038.627-78.184.763-62.546.153 17.743.621 28.434 1.244 28.434.613 0 1.103 8.443 1.271 21.891l.275 21.892 3.484-5.325c2.787-4.259 3.73-5.064 4.709-4.026.673.714 7.516 12.169 15.206 25.455 16.489 28.487 19.082 32.707 20.099 32.709.42.001.763-1.76.763-3.913 0-2.467.758-4.793 2.05-6.29l2.051-2.376-.655 2.847c-.99 4.302-1.017 30.193-.043 40.241.803 8.28 1.039 8.944 3.562 10.012 3.139 1.329 47.316 1.71 53.265.46 3.518-.739 3.81-1.092 4.578-5.535.451-2.61.82-14.347.82-26.082 0-17.638.22-20.92 1.268-18.942 2.293 4.331 3.635 26.257 2.46 40.183-1.753 20.754-2.762 21.702-23.968 22.487-14.103.522-14.872.655-14.286 2.481.34 1.062 4.509 8.581 9.262 16.71 4.753 8.13 9.725 16.633 11.049 18.895l2.407 4.115-9.612 16.519c-5.287 9.085-9.612 16.853-9.613 17.261 0 .41 17.841.862 39.647 1.007l39.648.263-17.091 29.189 37.488 1.006-5.218 9.059c-12.749 22.13-34.107 52.01-52.162 72.971-11.665 13.541-39.007 40.517-51.47 50.778-5.317 4.377-10.355 8.525-11.195 9.219-1.313 1.082-4.443-3.745-22.145-34.15zm-697.67-107.082c-.551-1.434-.434-1.55.57-.563.696.683 1.008 1.495.695 1.805-.313.31-.882-.249-1.264-1.242zm-10.174-20.13c-.552-1.434-.435-1.55.57-.563.695.683 1.007 1.495.694 1.805-.313.31-.882-.249-1.264-1.242zm-15.673-34.767c-5.021-12.639-14.155-41.29-18.026-56.544-8.639-34.05-13.189-67.06-14.345-104.072-.779-24.913.021-36.404 2.532-36.402 1.546.002 1.698 3.005 1.738 34.472.048 37.25 1.212 50.682 7.218 83.286 4.45 24.156 14.203 59.877 19.65 71.965 1.8 3.994 3.603 10.568 2.9 10.568-.202 0-.952-1.472-1.666-3.271zm914.59-96.604c-.01-.958.922-9.891 2.068-19.852 1.67-14.504 1.84-18.564.854-20.387-.677-1.252-13.063-22.544-27.522-47.317-14.46-24.773-26.292-45.24-26.292-45.483 0-.243 11.639-.588 25.863-.769 14.225-.18 26.1-.562 26.388-.848.695-.69-1.825-19.42-3.367-25.03-.668-2.429-1.82-7.638-2.56-11.576-1.461-7.785-7.358-30.523-8.31-32.045-.323-.519-1.18-3.284-1.903-6.145-.724-2.862-3.013-9.732-5.088-15.268-5.11-13.629-5.291-14.594-2.748-14.594 2.418 0 5.83 8.562 12.53 31.44 18.032 61.57 23.39 127.312 15.527 190.49-1.084 8.708-2.263 14.094-3.525 16.104-1.313 2.09-1.902 2.483-1.914 1.278zm-292.042-58.145c0-38.5.197-44.286 1.51-44.286 1.298 0 1.552-4.314 1.797-30.447.157-16.746.392 3.183.524 44.286.237 74.14.222 74.733-1.797 74.733-2.004 0-2.035-.671-2.035-44.286zM300.47 583.416l3.136-8.807v-24.156c-.002-23.782-.046-24.29-2.864-32.711-2.854-8.534-6.462-14.976-10.317-18.421-1.12-1-4.782-3.153-8.14-4.783-11.533-5.598-28.702-3.358-37.484 4.89-4.328 4.064-7.518 10.017-10.413 19.423-5.056 16.435-4.515 50.516 1.046 65.894 1.476 4.083 1.903 6.165 1.03 5.021-4.887-6.398-8.475-21.998-9.272-40.32-1.518-34.89 6.392-57.638 22.814-65.614 5.36-2.603 6.757-2.828 17.546-2.828 11.195 0 12.028.149 18.513 3.306 7.525 3.665 11.6 7.993 15.52 16.486 7.497 16.235 9.673 46.306 5.015 69.283-1.302 6.427-7.587 22.143-8.854 22.143-.226 0 1-3.963 2.725-8.807zm351.303-3.462c-3.345-9.059-3.702-16.314-3.702-75.18 0-47.116.255-58.645 1.272-57.64.976.965 1.424 15.83 1.926 63.863.363 34.704 1.108 64.849 1.671 67.638 1.29 6.386.876 6.854-1.167 1.319zm182.498-13.52c-4.315-.773-10.024-3.571-10.666-5.227-.855-2.204-1.376-17.564-3.079-90.77-2.238-96.218-2.267-101.053-.61-103.036.78-.931 1.602-1.51 1.828-1.287.226.223 1.305 42.442 2.397 93.82 1.487 69.905 2.295 93.602 3.211 94.162 4.39 2.683 48.244 2.727 52.349.052.84-.547 4.197-133.794 4.544-180.344l.056-7.549 1.773 4.026c1.632 3.706 1.71 7.061.969 42.273-.443 21.036-1.244 62.252-1.782 91.592-.605 33.055-1.39 54.415-2.065 56.16-1.96 5.069-6.416 6.096-27.557 6.35-10.353.124-19.969.02-21.368-.23zM462.874 503.4c-2.702-4.384-2.694-12.027.018-16.368 1.296-2.073 3.994-4.142 7.377-5.655 4.85-2.168 6.677-2.38 20.089-2.33 15.519.06 19.902.818 35.937 6.218 6.772 2.28 8.095 2.462 8.89 1.223 3.109-4.843 10.118-27.58 10.118-32.82 0-3.18 1.834-2.993 2.662.272 1.17 4.608-.467 16.712-3.523 26.059-4.777 14.608-6.753 17.014-13.812 16.815-3.115-.087-19.923-5.065-19.923-5.9 0-.264.463-1.334 1.028-2.379 1.128-2.085 1.689-1.902-12.22-4-10.033-1.514-10.3-1.468-9.133 1.568 1.365 3.55 1.437 3.457-2.74 3.457-2.052 0-6.624.498-10.158 1.107-5.387.928-6.938 1.684-9.589 4.67-2.609 2.94-3.096 4.242-2.787 7.448.206 2.137.241 3.886.078 3.886-.163 0-1.203-1.472-2.312-3.271zM355.66 487.005c-.982-2.531-.693-3.184.507-1.144.594 1.01.865 2.05.603 2.308-.262.26-.761-.265-1.11-1.164zm52.275-14.496c0-.52.452-1.224 1.006-1.562.576-.352.747.052.4.947-.677 1.744-1.406 2.063-1.406.615zM76.454 403.136c-.987-.603-.352-3.578 2.736-12.814 23.704-70.895 62.42-132.747 116.524-186.132 31.889-31.47 60.206-53.044 97.755-74.478 138.471-79.039 306.45-85.047 448.717-16.047C820.96 151.868 886.01 208.816 934.361 281.9c12.343 18.658 30.294 51.369 35.21 64.16 2.171 5.647.001 1.868-8.062-14.04-6.96-13.734-8.679-16.427-9.86-15.458-1.725 1.417-1.095 2.109-6.983-7.668-2.667-4.428-6.878-11.14-9.357-14.914-3.62-5.51-4.27-7.146-3.299-8.304.94-1.12.908-1.8-.147-3.058-.746-.89-1.833-2.41-2.414-3.379-1.947-3.244-6.394-9.575-8.314-11.837-1.045-1.232-3.045-3.886-4.444-5.9-2.574-3.704-22.085-27.404-25.616-31.115a376.015 376.015 0 01-5.098-5.536c-10.35-11.453-23.636-24.27-37.025-35.716-3.876-3.314-7.276-6.282-7.556-6.597-.507-.57-15.975-12.753-19.841-15.627-1.12-.832-3.867-2.9-6.105-4.595-10.233-7.749-21.019-14.204-22.044-13.19-1.538 1.521-16.977-8.005-20.462-12.627-1.777-2.355-6.293-5.682-12.186-8.977-8.081-4.518-9.575-5.044-10.914-3.845-1.121 1.003-2.062 1.106-3.393.369-1.013-.56-2.55-.75-3.415-.422-1.749.663-14.583-5.201-14.583-6.664 0-2.377-33.285-15.39-52.401-20.487a4471.57 4471.57 0 01-20.35-5.495c-6.156-1.68-14.635-3.684-18.842-4.454-4.208-.77-10.517-2.135-14.023-3.034-10.792-2.766-34.714-6.431-46.915-7.188-11.09-.687-11.583-.634-11.098 1.195.49 1.853-.38 1.904-27.06 1.578-24.123-.295-43.467.498-59.798 2.452-4.448.532-4.724.432-4.206-1.528.672-2.542.141-2.575-10.509-.657-4.399.792-10.516 1.737-13.594 2.1-3.077.363-9.03 1.48-13.227 2.484-4.197 1.003-9.463 2.13-11.701 2.503-8.433 1.408-32.889 8.47-49.858 14.397-17.302 6.045-20.576 7.328-28.342 11.111-.479.233-.562-.536-.186-1.708.376-1.173.481-2.132.234-2.132-1.618 0-29.806 13.622-45.011 21.751-13.629 7.287-14.291 7.85-12.874 10.927.81 1.759.837 2.55.085 2.55-.599 0-2.306.936-3.793 2.08-1.488 1.146-7.364 5.109-13.058 8.808-32.001 20.787-48.212 33.777-74.47 59.672-13.178 12.995-18.372 18.589-29.545 31.822-5.451 6.455-10.014 11.002-10.758 10.719-.727-.276-3.019 1.835-5.238 4.825-2.17 2.924-4.958 6.687-6.196 8.362-2.406 3.256-9.21 13.048-10.946 15.752-.577.9-2.682 4.07-4.678 7.046-10.128 15.101-24.298 40.975-31.902 58.252-2.071 4.705-4.616 10.367-5.656 12.581-2.777 5.913-9.18 22.43-9.18 23.681 0 .593-.768 2.528-1.708 4.3-.94 1.77-2.203 5.353-2.808 7.959-.789 3.4-1.462 4.516-2.384 3.952zm901.922-33.892c-.982-2.53-.692-3.184.507-1.143.594 1.01.866 2.049.604 2.308-.262.259-.762-.265-1.111-1.165zm-5.654-13.616c-1.235-2.838-2.05-5.354-1.81-5.59.238-.236 1.419 1.917 2.624 4.785 1.204 2.868 2.02 5.383 1.81 5.59-.209.207-1.39-1.946-2.624-4.785z" fill="#e15e98"/><path d="M763.056 951.945c0-.834 1.488-2.19 3.306-3.016 3.931-1.784 7.963-4.166 17.552-10.37 3.918-2.535 7.859-5.067 8.758-5.628.9-.56 3.566-2.291 5.926-3.846 2.36-1.555 5.058-2.661 5.996-2.458 1.883.409-15.096 11.787-31.618 21.188-6.985 3.975-9.92 5.197-9.92 4.13zm68.172-46.145c0-.8.85-2.045 1.889-2.768 5.607-3.905 14.755-12.286 31.666-29.016 17.501-17.311 21.589-21.687 30.692-32.855 3.04-3.73 7.432-6.263 8.694-5.015.895.885-18.595 22.52-33.696 37.405-14.11 13.908-36.675 33.663-38.482 33.69-.42.006-.763-.642-.763-1.441zm99.182-108.652c.014-2.63.699-5.18 1.687-6.29.914-1.028 2.64-3.68 3.835-5.894 1.195-2.214 3.784-6.743 5.753-10.065 1.97-3.321 3.833-6.783 4.14-7.692.47-1.386 6.199-3.495 7.093-2.61.575.569-21.432 36.975-22.352 36.975-.1 0-.17-1.99-.156-4.424zM447.118 660.002c-11.129-.902-26.9-3.602-35.104-6.01-15.98-4.691-17.211-6.248-15.425-19.519 1.217-9.042 6.479-26.835 8.468-28.634.822-.743 1.002-.609.63.469-2.512 7.29-6.9 27.184-6.9 31.286 0 1.315 17.83 6.61 30.57 9.08 15.467 2.997 45.85 3.252 58.46.489 28.828-6.315 48.74-19.705 58.51-39.345 4.443-8.93 6.122-16.744 6.272-29.189.13-10.654.17-10.844 1.067-5.032.513 3.321.714 11.071.447 17.222-.414 9.524-.963 12.36-3.7 19.124-6.953 17.182-17.764 28.663-34.824 36.983-10.924 5.33-23.892 9.34-33.368 10.32-3.638.375-6.919 1.148-7.291 1.717-.706 1.08-18.914 1.76-27.813 1.039zm268.11-1.442c0-.931-2.763-1.072-11.446-.585-17.616.99-42.975-.831-55.708-3.999-17.287-4.3-30.844-12.217-38.907-22.72-9.618-12.527-11.988-17.16-16.372-31.994l-3.122-10.568-.121-69.952-.121-69.952.642 61.397c.534 51.107.924 62.838 2.326 69.998 7.988 40.787 28.454 61.17 67.075 66.808 32.521 4.747 69.212 1.953 103.073-7.85l8.14-2.356.52-62.797c.286-34.538.63-52.014.763-38.834.159 15.66.596 23.748 1.26 23.342.673-.411 1.018 13.593 1.018 41.257 0 48.374.341 46.418-8.672 49.753-3.107 1.15-6.225 2.091-6.929 2.091-.704 0-5.609 1.096-10.9 2.435-5.29 1.34-13.97 2.955-19.286 3.59-5.317.635-10.468 1.382-11.447 1.659-1.001.283-1.78-.034-1.78-.724zm-465.505-1.053c-12.665-1.199-30.357-7.454-40.677-14.382-21.567-14.477-36.122-39.362-40.648-69.497-1.885-12.548-1.971-33.944-.184-45.324 1.232-7.84 1.253-7.628.809 8.052-.483 17.013.59 28.546 3.814 41.015 10.064 38.923 35.318 63.154 73.325 70.355 10.09 1.911 35.404 1.616 45.788-.534 49.628-10.277 77.438-51.566 74.99-111.34-.307-7.472-.295-12.907.026-12.077.32.83 1.086 1.832 1.7 2.227.725.465 1.247 7.45 1.484 19.881.313 16.398.048 20.87-1.84 30.988-4.213 22.592-8.58 32.82-21.124 49.464-5.802 7.698-18.122 17.768-27.755 22.686-10.721 5.474-27.866 10.644-28.718 8.66-.16-.372-3.953-.34-8.43.073-10.252.943-20.834.863-32.56-.247zm580.056-.876c-6.795-1.204-9.88-4.402-10.868-11.266-1.072-7.455-1.106-38.051-.042-38.051.48 0 1.308-2.378 1.839-5.284.8-4.388.954-2.81.906 9.31-.032 8.027.329 18.585.802 23.462.802 8.281 1.038 8.944 3.56 10.012 3.125 1.322 47.307 1.714 53.209.471 4.759-1.002 4.841-1.375 5.721-25.893.69-19.231.718-19.424 1.415-9.562.8 11.337.104 32.401-1.248 37.765-1.215 4.817-4.86 6.71-15.256 7.926-12.955 1.515-34.4 2.11-40.038 1.11zM62.187 619.895c-.02-1.66.19-2.462.47-1.78.278.681.295 2.04.037 3.02-.258.979-.486.421-.507-1.24zm-1.017-6.039c-.021-1.66.19-2.462.469-1.78.279.681.295 2.04.038 3.02-.258.979-.487.421-.507-1.24zm943.09-3.02c0-.553.665-5.535 1.476-11.07 2.236-15.266 1.993-21.777-1.03-27.68-2.537-4.95-2.544-5.05-2.544-33.633 0-26.168-1.117-43.03-3.654-55.19-.499-2.388-.253-2.77 1.792-2.783 4.932-.033 5.31-1.017 3.903-10.194-.71-4.626-1.943-11.582-2.743-15.457-4.05-19.63-5.448-25.93-5.925-26.693-.287-.46-1.38-4.154-2.43-8.209-2.9-11.212-6.758-23.453-10.73-34.043-4.089-10.9-4.123-11.072-2.186-11.072 1.751 0 6.248 12.006 12.273 32.767 7.528 25.936 13.119 54.48 16.49 84.188 2.708 23.864 2.426 73.837-.555 98.353-1.24 10.194-2.679 19.253-3.197 20.13-.518.876-.941 1.14-.94.586zm-944.138-3.522c0-1.384.23-1.95.513-1.258.282.692.282 1.824 0 2.516s-.513.126-.513-1.258zm-1.018-7.046c0-1.383.231-1.95.513-1.258.283.692.283 1.825 0 2.517-.282.692-.513.125-.513-1.259zm653.072-44.286c0-28.853.355-44.286 1.018-44.286s1.017 15.433 1.017 44.286c0 28.854-.354 44.286-1.017 44.286-.663 0-1.018-15.432-1.018-44.286zm172.04 40.847c-.045-1.06.196-1.655.534-1.32.338.334.374 1.202.08 1.928-.325.803-.566.565-.615-.608zm-826.669-8.864c-2.452-26.992-3.308-55.866-2.019-68.07 1.324-12.528 2.02-5.597 1.58 15.718-.25 12.047.078 30.223.729 40.39 1.174 18.34.988 26.023-.29 11.962zm436.131-2.659c-2.87-6.188-7.748-9.454-19.88-13.312-5.066-1.61-9.765-2.928-10.444-2.928-.679 0-5.754-1.391-11.277-3.092-25.73-7.922-38.264-16.937-46.072-33.139-3.602-7.472-3.643-7.708-3.971-22.648-.182-8.304.09-16.91.604-19.123.755-3.254.93-1.904.915 7.045-.036 19.556 3.675 30.204 14.053 40.327 8.538 8.33 20.347 13.897 44.478 20.972 20.355 5.968 26.691 8.474 30.687 12.136 3.774 3.46 5.768 12.156 3.872 16.89-.545 1.361-1.206.664-2.964-3.127zm-189.214-10.771c3.356-17.492 3.29-31.688-.233-49.661-4.156-21.21-12.92-31.706-28.666-34.333-14.22-2.372-27.743 1.701-34.715 10.456-4.122 5.177-7.862 13.95-9.417 22.093-2.434 12.748-3.506 27.887-2.543 35.911 1.127 9.382 1.074 12.678-.127 8.052-1.605-6.179-2.247-31.174-1.047-40.766 2.91-23.26 9.806-36.397 22.293-42.461 5.36-2.603 6.757-2.828 17.547-2.828 11.194 0 12.028.148 18.512 3.306 7.525 3.664 11.6 7.992 15.521 16.485 7.415 16.062 9.577 44.894 5.1 68.039-.806 4.168-1.77 7.852-2.141 8.186-.372.334-.41-.782-.084-2.48zm-74.417-1.443c0-1.383.231-1.95.513-1.258.283.692.283 1.825 0 2.517-.282.692-.513.125-.513-1.259zm418.681-5.649c-.358-2.583-.55-30.11-.426-61.172l.224-56.474.539 60.893c.296 33.491.488 61.019.426 61.172-.061.153-.405-1.835-.763-4.418zm186.569-3.038c-5.66-.704-8.797-2.314-10.167-5.22-.937-1.988-1.5-17.7-2.136-59.567-.475-31.277-1.323-72.895-1.884-92.485-.57-19.917-.635-36.298-.146-37.162 1.187-2.098 1.841 17.142 3.656 107.444 1.135 56.545 1.836 76.124 2.745 76.68 4.385 2.68 48.2 2.722 52.357.05.867-.558 4.28-136.18 4.502-178.836.034-6.544.24-7.58 1.1-5.535 1.153 2.738.788 29.86-1.738 129.013-.813 31.929-1.93 59.225-2.48 60.66-.552 1.433-2.27 3.107-3.82 3.719-2.825 1.116-35.274 2.07-41.99 1.235zm-469.922-45.663c0-1.384.23-1.95.513-1.258.282.692.282 1.824 0 2.516s-.513.126-.513-1.258zm-195.32-1.51c-.02-1.66.19-2.462.47-1.78.278.68.295 2.04.037 3.019-.258.98-.486.422-.506-1.24zm291.463-16.087c-.36-.93-.656-3.752-.656-6.271 0-6.451 2.88-10.58 9.42-13.503 4.849-2.169 6.676-2.38 20.088-2.33 15.503.058 19.905.819 35.862 6.191 4.334 1.46 8.144 2.393 8.465 2.075 1.48-1.464 6.644-15.66 8.673-23.844 2.222-8.962 3.98-11.067 3.98-4.768 0 1.784-.683 5.72-1.518 8.747a300.627 300.627 0 00-2.672 10.537c-.634 2.767-2.471 7.628-4.083 10.801-3.783 7.448-5.694 7.97-16.264 4.44-4.383-1.463-8.677-2.66-9.542-2.66-1.136 0-1.409-.648-.982-2.331.552-2.174.158-2.408-5.83-3.478-3.533-.631-8.899-1.462-11.924-1.846-5.243-.666-5.474-.6-4.94 1.42.495 1.871.011 2.189-4.166 2.738-7.247.952-15.476 3.648-18.16 5.95-1.331 1.142-3.022 3.819-3.757 5.95-.999 2.892-1.504 3.445-1.994 2.182zM76.12 402.535c-1.387-1.385 10.277-33.734 19.998-55.464 24.068-53.8 56.542-100.383 99.615-142.893 31.889-31.47 60.206-53.044 97.754-74.478 104.996-59.935 226.364-78.316 344.79-52.22 113.737 25.062 216.697 92.95 284.544 187.622 13.91 19.41 33.919 51.898 30.782 49.98-.625-.382-1.432-.221-1.793.356-.65 1.04-3.191-2.259-7.024-9.115-2.092-3.744-7.873-12.905-10.843-17.183-1.216-1.753-1.49-2.972-.814-3.64.94-.929-.414-3.146-12.784-20.936-1.168-1.679-2.688-3.717-3.379-4.529-1.513-1.777-6.747-8.224-10.937-13.47-1.679-2.103-3.968-4.855-5.088-6.117a956.323 956.323 0 01-6.613-7.613c-4.893-5.682-5.997-6.872-16.367-17.643-7.856-8.16-20.647-20.176-28.3-26.585-2.974-2.491-6.389-5.48-7.589-6.642-2.183-2.115-19.58-15.715-23.705-18.533-1.206-.824-5.234-3.649-8.952-6.278-3.718-2.63-7.016-4.781-7.328-4.781-.312 0-1.958-1.158-3.658-2.573-2.08-1.732-3.427-2.241-4.119-1.557-1.233 1.22-2.365.67-13.434-6.517-4.477-2.907-8.988-6.578-10.024-8.157-2.698-4.112-17.599-11.785-21.154-10.894-1.69.423-3.863.072-5.85-.944-1.74-.89-3.163-1.203-3.163-.695 0 1.3-10.373-4.02-12-6.155-.739-.97-1.956-1.762-2.706-1.762s-4.73-1.523-8.845-3.385c-6.846-3.097-14.16-5.916-27.833-10.73-2.798-.986-7.834-2.479-11.192-3.318-3.358-.84-10.226-2.73-15.263-4.2-5.036-1.47-13.05-3.528-17.806-4.572-4.757-1.044-11.396-2.573-14.754-3.398-12.42-3.05-33.931-6.635-45.787-7.631-6.716-.565-14.156-1.301-16.535-1.637-2.603-.368-4.324-.212-4.324.39 0 .896-64.753 2.642-87.505 2.36-4.197-.051-11.523.62-16.28 1.491-4.757.872-12.312 2.199-16.789 2.949-9.05 1.516-27.663 5.667-35.564 7.932-14.376 4.119-29.444 8.87-37.187 11.724-4.757 1.754-11.016 4.01-13.911 5.014-2.895 1.003-6.284 2.364-7.531 3.025-1.952 1.033-2.18.973-1.638-.426.864-2.228-.74-2.043-6.29.727-2.594 1.294-12.27 6.055-21.505 10.579-28.156 13.796-31.027 15.525-31.075 18.715-.026 1.684-.82 3.17-2.035 3.809-1.096.576-5.198 3.133-9.116 5.68-3.917 2.549-7.88 5.092-8.806 5.653-3.11 1.881-16.556 11.07-18.128 12.388-.856.717-6.703 5.282-12.994 10.144-15.644 12.09-23.715 19.244-40.99 36.333-15.372 15.205-23.508 24.023-32.706 35.447-2.982 3.703-6.123 6.76-6.979 6.794-.856.033-3.375 2.6-5.596 5.707-2.222 3.106-5.16 7.014-6.53 8.684-2.384 2.91-16.682 24.227-20.899 31.16-12.215 20.085-30.05 56.064-37.572 75.791-1.477 3.875-3.557 9.31-4.622 12.078-1.065 2.768-2.541 7.225-3.28 9.904-.74 2.679-1.632 4.583-1.985 4.231z" fill="#d65a91"/><path d="M443.052 655.973c-9.035-1.061-27.35-4.912-33.494-7.043-7.377-2.557-9.663-4.45-9.717-8.043-.032-2.152-.01-2.15 8.962.703 27.541 8.761 61.03 10.326 85.967 4.016 21.405-5.416 40.871-18.531 49.364-33.258 4.03-6.989 4.23-4.871.24 2.527-11.083 20.544-31.9 33.76-60.155 38.188-5.853.918-10.794 2.096-10.982 2.62-.316.888-23.217 1.11-30.186.29zm-186.203-1.028c-13.977-1.18-31.059-5.851-38.156-10.433-1.4-.903-3.297-1.91-4.217-2.236-5.774-2.053-21.3-16.757-26.815-25.4-3.118-4.884-7.306-13.587-10.108-21.004-3.724-9.857-3.207-10.594.902-1.285 5.202 11.787 9.404 18.183 17.732 26.988 12.688 13.416 27.65 21.59 46.942 25.645 10.488 2.205 37.866 2.499 47.297.508 25.464-5.375 45.428-17.924 58.409-36.716 4.588-6.642 10.752-19.9 13.193-28.377 2.838-9.856 2.64-5.907-.254 5.053-2.907 11.012-6.054 19.21-8.773 22.858-1.118 1.5-2.033 2.983-2.033 3.295 0 3.964-24.138 28.702-28.006 28.702-.458 0-1.555.641-2.439 1.426-1.473 1.308-6.754 3.605-16.627 7.23-2.105.774-6.226 1.613-9.157 1.864-2.932.252-9.45.924-14.487 1.493-8.874 1.003-14.937 1.104-23.403.39zm426.841 0c-26.068-1.446-45.942-6.052-56.61-13.122-3.16-2.096-6.712-4.441-7.892-5.212-3.902-2.552-11.481-12.57-15.693-20.741-5.62-10.906-6.468-15.118-1.014-5.033 2.921 5.4 6.873 10.573 12.003 15.709 13.563 13.578 29.115 19.411 59.031 22.138 25.027 2.28 52.564-.276 81.909-7.604 7.834-1.956 14.359-3.56 14.5-3.564.139-.004.253.82.253 1.831 0 4.888-11.448 9.302-33.068 12.752-5.037.803-11.444 1.888-14.238 2.41-2.794.521-5.313.584-5.596.138-.284-.445-5.782-.433-12.218.026-6.435.46-12.617.78-13.736.709-1.119-.07-4.553-.268-7.631-.439zm148.688-2.233c-3.946-.496-5.996-1.336-7.377-3.023-2.87-3.506-2.508-5.42.885-4.695 7.482 1.6 28.677 2.38 40.694 1.498 7.138-.524 13.5-1.14 14.135-1.37 2.001-.72.25 3.493-2.056 4.947-2.974 1.875-36.954 3.816-46.283 2.643zM496.47 582.814c0-.928-1.365-3.1-3.033-4.827-4.935-5.108-12.398-8.072-35.123-13.949-19.57-5.061-30.302-10.37-39.788-19.688-5.493-5.394-7.758-8.491-9.415-12.871-2.919-7.718-2.737-8.192.802-2.09 4.05 6.985 12.529 14.378 22.19 19.35 4.908 2.526 16.21 6.577 28.842 10.338 21.931 6.53 28.434 9.21 32.306 13.317 2.28 2.419 4.893 10.45 3.764 11.568-.3.296-.544-.22-.544-1.149zm511.966-5.694c0-1.384.23-1.95.513-1.259.282.692.282 1.825 0 2.517s-.513.125-.513-1.258zm-644.078-4.026c0-1.384.231-1.95.514-1.259.282.692.282 1.825 0 2.517-.283.692-.514.125-.514-1.258zm645.085-24.83c-.146-25.56-1.443-51.682-3.102-62.484-.784-5.107.362-7.618 1.377-3.02 2.414 10.927 4.124 59.35 2.781 78.759-.866 12.529-.911 11.966-1.056-13.256zm-644.027 19.294c-.02-1.661.19-2.462.47-1.78.278.68.295 2.04.037 3.019-.258.979-.486.422-.506-1.24zm471.205-6.528c-5.548-1.167-8.442-2.74-8.442-4.585 0-1.248 1.398-1.36 8.903-.72 11.474.98 21.923.964 33.136-.052 8.916-.807 8.963-.8 7.824 1.307-.63 1.165-2.378 2.606-3.883 3.202-3.509 1.388-31.92 2.03-37.539.848zm-532.356-49.409c-1.431-4.724-6.89-13.49-10.415-16.72-1.321-1.21-5.505-3.637-9.297-5.392-6.703-3.101-7.216-3.18-18.315-2.784-9.862.35-12.114.765-16.507 3.036-6.535 3.378-10.621 7.103-14.679 13.38-3.466 5.362-3.352 2.968.191-4.025 3.73-7.362 7.747-11.387 14.781-14.811 6.45-3.14 7.36-3.305 18.004-3.277 9.5.025 12.02.387 16.515 2.373 9.361 4.135 17.132 14.396 20.628 27.24 1.506 5.534.727 6.376-.907.98zm157.05-20.006c.755-4.426 3.922-7.826 9.72-10.435 3.66-1.647 6.925-2.095 16.28-2.236 6.435-.097 9.02.009 5.745.235-5.28.364-5.898.63-5.444 2.346.418 1.583-.167 2.045-3.202 2.531-13.147 2.108-19.624 4.807-22.649 9.439-.774 1.185-.89.703-.449-1.88zm60.174-2.6c-8.228-2.895-7.958-2.707-7.092-4.939.842-2.17 5.007-1.545 14.35 2.154 5.24 2.075 6.225 2.811 5.274 3.944-1.637 1.952-4.427 1.694-12.532-1.159zm14.392-3.568c.36-1.361.821-1.818 1.075-1.064.245.726-.038 1.799-.63 2.384-.755.747-.887.354-.445-1.32zm405.24-191.155c-.599-1.107-.86-2.013-.58-2.013s.999.906 1.598 2.013c.599 1.107.86 2.013.58 2.013s-.999-.906-1.598-2.013zm-3.55-5.66c-.962-1.452-1.246-2.332-.63-1.956 1.174.718 3.543 4.597 2.807 4.597-.235 0-1.215-1.188-2.177-2.64zm-782.793-38.057c.716-3.146 23.65-29.154 40.011-45.372 24.875-24.66 49.154-44.254 77.791-62.78 10.855-7.023 12.801-7.96 13.599-6.55.702 1.242.215 2.226-1.986 4.01-1.604 1.3-3.832 2.66-4.952 3.019-1.119.359-2.811 1.327-3.76 2.151-.95.824-4.668 3.375-8.263 5.668-10.618 6.775-21.442 14.013-23.08 15.434-1.498 1.3-6.723 5.393-13.245 10.376-1.811 1.384-4.555 3.649-6.097 5.032-1.542 1.384-5.226 4.555-8.187 7.046-7.996 6.728-20.77 18.706-28.351 26.586-10.42 10.829-11.483 11.975-16.363 17.647-2.518 2.927-5.723 6.582-7.122 8.12-4.874 5.364-8.14 9.482-8.14 10.267 0 .435-.492.79-1.092.79-.6 0-.944-.65-.763-1.445zm633.648-108.129c-7.637-4.934-11.042-6.974-14.755-8.838-2.935-1.473-6.143-5.114-5.268-5.98.618-.611 27.218 15.703 27.218 16.695 0 2.057-1.855 1.574-7.195-1.877zm-43.8-23.985c-2.584-1.325-5.96-2.634-7.5-2.91-1.541-.277-4.235-1.56-5.986-2.852-1.75-1.292-4.786-3.048-6.745-3.902-10.645-4.641-14.205-6.1-18.823-7.708-19.487-6.79-26.292-9.003-32.56-10.59-3.918-.991-11.93-3.11-17.807-4.71-5.876-1.6-14.118-3.541-18.315-4.315-4.197-.773-11.523-2.32-16.28-3.435-9.825-2.305-25.934-4.85-38.667-6.108-11.255-1.112-87.969.44-97.047 1.963-5.557.933-7.164.914-7.793-.093-.632-1.011-2.922-.936-11.314.373-5.788.902-12.812 1.925-15.61 2.274-2.798.348-8.521 1.449-12.719 2.446-4.197.997-9.462 2.105-11.7 2.462-12.922 2.062-53.634 14.616-72.752 22.435-2.939 1.202-3.305 1.08-2.554-.846 1.096-2.81 37.634-15.444 63.445-21.936 99.871-25.124 203.032-18.465 297.558 19.206 21.503 8.569 40.66 17.687 40.176 19.121-.634 1.881-1.954 1.716-7.012-.876z" fill="#bc5281"/><path d="M437.456 651.917c-4.618-.481-25.144-5.127-28.672-6.49-2.553-.986-7.015-4.895-5.588-4.895.358 0 4.664 1.151 9.57 2.558 13.213 3.79 25.43 5.62 42.413 6.35 10.752.463 15.303 1.021 15.601 1.912.326.973-2.994 1.222-14.671 1.097-8.301-.088-16.695-.328-18.654-.532zm282.732-2.09c.715-1.32 3.784-2.247 11.991-3.617 6.067-1.013 16.297-3.157 22.732-4.764 6.436-1.607 11.801-2.923 11.925-2.924.122-.001-.032.653-.343 1.454-.8 2.064-10.674 5.056-28.325 8.585-18.123 3.623-19.3 3.706-17.98 1.267zm113.94.043c-2.04-.213-4.549-1.307-5.576-2.43-1.867-2.04-1.86-2.042 5.742-1.326 8.56.807 9.138.998 9.138 3.033 0 1.465-1.278 1.564-9.304.723zm-538.115-1.085c0-1.335 2.338-3.22 4.019-3.239 2.826-.033 17.753-6.577 23.984-10.516 3.346-2.114 8.574-5.93 11.618-8.481 6.718-5.628 5.885-3.79-1.328 2.931-9.175 8.55-19.674 14.782-30.62 18.178-6.939 2.152-7.674 2.26-7.674 1.127zm46.805-29.893c.696-.83 1.495-1.51 1.775-1.51.28 0-.061.68-.758 1.51-.696.83-1.495 1.51-1.775 1.51-.28 0 .061-.68.758-1.51zm138.105-549.71c.689-.275 2.063-.292 3.053-.037.99.255.426.48-1.253.501-1.679.02-2.489-.188-1.8-.464zm6.621-1.037c.973-.252 2.805-.261 4.07-.02 1.266.24.47.446-1.768.457-2.239.011-3.274-.185-2.302-.437zm12.21-1.007c.973-.252 2.805-.261 4.07-.02 1.266.24.47.447-1.768.458-2.239.011-3.274-.186-2.302-.438zm25.45-1.063c4.337-.189 11.435-.189 15.771 0 4.337.189.789.343-7.885.343s-12.222-.154-7.886-.343z" fill="#b84d7d"/><path d="M239.176 644.948c-37.421-9.663-60.255-36.061-67.89-78.488-9.644-53.588 11.34-101.848 52.478-120.7 16.925-7.754 55.276-9.882 75.14-4.17 26.29 7.56 46.859 27.49 58.005 56.207 6.342 16.335 8.742 55.168 4.623 74.792-6.47 30.828-28.84 58.722-54.8 68.329-16.47 6.096-51.468 8.183-67.556 4.029zm45.239-41.734c18.118-9.268 24.475-27.73 23.113-67.113-.74-21.384-1.771-27.013-6.675-36.433-7.36-14.14-17.327-19.747-35.104-19.747-23.778 0-35.468 13.19-39.999 45.128-2.997 21.126.141 49.395 6.927 62.402 6.743 12.924 17.314 19.135 32.569 19.135 6.917 0 15.542-1.517 19.168-3.372zM435.91 646.67c-3.201-.575-12.93-2.783-21.618-4.909-15.768-3.857-15.794-3.876-14.39-10.883 2.725-13.597 8.152-30.98 10.03-32.128 1.045-.64 7 .356 13.232 2.211 16.488 4.909 40.294 6.563 51.439 3.575 15.137-4.06 21.84-10.498 21.84-20.98 0-11.845-6.469-16.663-33.651-25.067-42.414-13.115-54.905-23.882-58.46-50.393-2.032-15.15 2.15-32.175 10.745-43.734 9.538-12.83 30.88-23.588 50.646-25.53 18.615-1.827 51.089.712 65.643 5.134 10.218 3.104 10.463 3.401 9.901 12.045-.316 4.875-2.184 13.654-4.15 19.51l-3.575 10.648-15.64-4.398c-10.65-2.995-20.957-4.164-32.312-3.665-20.414.896-26.398 5.03-26.398 18.233 0 10.543 3.102 12.508 38.193 24.198 26.95 8.977 35.98 14.492 44.158 26.969 11.21 17.101 11.088 45.294-.276 63.477-14.265 22.823-39.624 34.787-76.255 35.977-12.805.416-25.901.286-29.102-.289zm222.843-.986c-28.52-4.46-47.89-18.243-58.96-41.952l-6.732-14.421-.728-74.272-.728-74.272h53.581l.712 67.363c.654 61.966 1.084 68.096 5.367 76.511 7.04 13.832 17.058 18.463 39.968 18.477 10.458.006 19.492-.507 20.077-1.14 1.74-1.884 3.894-64.545 3.94-114.57l.04-46.636h50.519l1.503 22.454c.827 12.35 1.508 56.309 1.515 97.686l.012 75.232-21.535 5.022c-24.292 5.664-67.228 7.857-88.55 4.522zm167.42-117.972c-.734-14.25-1.952-57.12-2.709-95.267l-1.374-69.36 5.388-1.427c6.875-1.821 43.327-1.862 50.136-.056 5.022 1.331 5.138 2.072 4.064 25.877-.608 13.479-1.745 56.374-2.527 95.323l-1.42 70.818h-50.226zm4.364 116.14l-6.984-1.602-.664-24.982c-.436-16.445.258-26.08 2.032-28.193 2.003-2.388 9.21-3.212 28.092-3.212 22 0 25.622.54 27.07 4.03 2.257 5.436 2.141 50.4-.135 52.65-2.38 2.351-40.466 3.36-49.411 1.309z" fill="#fff" stroke-opacity="0"/></svg>