<svg xmlns="http://www.w3.org/2000/svg" width="16" height="16"><path d="M3.832 2c-.644 0-1.168.523-1.168 1.168v9.664c0 .645.523 1.168 1.168 1.168h2.332c.645 0 1.168-.523 1.168-1.168V3.168C7.332 2.523 6.809 2 6.164 2zm-.168 1.168c0-.094.074-.168.168-.168h2.332c.094 0 .168.074.168.168v9.664a.167.167 0 01-.168.168H3.832a.167.167 0 01-.168-.168zM9.832 2c-.645 0-1.168.523-1.168 1.168v9.664c0 .645.524 1.168 1.168 1.168h2.332c.645 0 1.168-.523 1.168-1.168V3.168c0-.645-.523-1.168-1.168-1.168zm-.168 1.168c0-.094.074-.168.168-.168h2.332c.094 0 .168.074.168.168v9.664a.167.167 0 01-.168.168H9.832a.167.167 0 01-.168-.168zm0 0" fill="#ddd"/></svg>