<svg xmlns="http://www.w3.org/2000/svg" width="16" height="16"><path d="M6.781 9.297c-.222.27-.367.61-.402.976H2.96a.485.485 0 00-.484.489v.375c0 .347.12.683.347.949.766.894 1.942 1.379 3.555 1.434.035.37.18.707.402.98H6.7c-2.047 0-3.597-.59-4.613-1.781a2.43 2.43 0 01-.586-1.582v-.375c0-.774.602-1.41 1.363-1.461l.098-.004zm3.004-1.625h1.953c.418 0 .766.32.809.73l.004.082v.813h.812c.63 0 1.137.512 1.137 1.14v2.926c0 .625-.508 1.137-1.137 1.137H8.16a1.138 1.138 0 01-1.137-1.137v-2.925c0-.63.508-1.141 1.137-1.141h.813v-.813c0-.418.32-.765.73-.808l.082-.004h1.953zm3.578 2.601H8.16c-.09 0-.16.075-.16.165v2.925c0 .09.07.16.16.16h5.203c.09 0 .16-.07.16-.16v-2.925c0-.09-.07-.165-.16-.165zm-1.789-1.625H9.95v.649h1.625zM6.7 1.5a3.25 3.25 0 110 6.5 3.25 3.25 0 010-6.5zm0 .977A2.274 2.274 0 004.422 4.75a2.277 2.277 0 002.277 2.277A2.274 2.274 0 008.973 4.75a2.27 2.27 0 00-2.274-2.273zm0 0" fill="#ddd"/></svg>