<svg xmlns="http://www.w3.org/2000/svg" width="16" height="16"><path d="M12.46 10.035c-.081-.086-.21-.168-.339-.129a.473.473 0 00-.469.473c0 .125.086.254.168.34l.559.554c-.598-.085-1.156-.296-1.625-.683-.043 0-.043-.043-.086-.086L5.628 5.21c-.85-.941-1.878-1.453-3.116-1.453a.475.475 0 00-.469.469c0 .257.215.43.469.43.984 0 1.793.425 2.433 1.152l5.125 5.336.086.085c.64.516 1.453.856 2.305.942l-.64.598a.52.52 0 00-.212.382.45.45 0 00.512.43c.129 0 .258-.086.34-.172l1.324-1.238a.54.54 0 000-.77zm-.038-7.43c-.172-.214-.43-.257-.64-.085a.39.39 0 00-.173.343c0 .168.043.297.211.383l.559.555c-.984.129-1.879.511-2.563 1.195L8.277 6.578a.41.41 0 000 .598.488.488 0 00.344.129.485.485 0 00.34-.13l1.496-1.581c.555-.512 1.238-.852 1.965-.938l-.602.598c-.082.086-.168.21-.168.34 0 .258.211.472.426.472a.672.672 0 00.383-.128l1.41-1.368a.462.462 0 000-.64l-1.45-1.325m-5.85 5.98a.485.485 0 00-.344.126l-1.579 1.625c-.64.598-1.28.894-2.136.894h-.043a.476.476 0 00-.469.473c0 .254.215.426.469.426h.043c1.11 0 1.965-.426 2.82-1.152l1.621-1.668a.376.376 0 00.129-.297.39.39 0 00-.129-.301.675.675 0 00-.383-.125zm0 0" fill="#ddd"/></svg>