<svg xmlns="http://www.w3.org/2000/svg" width="16" height="16"><path d="M14.668 12.5c0 .277-.227.5-.5.5H1.832a.501.501 0 010-1h12.336c.273 0 .5.223.5.5zm-2.813-2.313a.505.505 0 01-.71 0l-2-2a.507.507 0 010-.707.505.505 0 01.71 0L11 8.625V3.168c0-.277.223-.5.5-.5s.5.223.5.5v5.457l1.145-1.145a.505.505 0 01.71 0 .507.507 0 010 .707zm-3.523-.355c0 .277-.223.5-.5.5h-6a.501.501 0 010-1h6c.277 0 .5.227.5.5zm0-2.664c0 .273-.223.5-.5.5h-6a.501.501 0 010-1h6c.277 0 .5.223.5.5zm0-2.668c0 .277-.223.5-.5.5h-6a.501.501 0 010-1h6c.277 0 .5.223.5.5zm0 0" fill="#ddd"/></svg>