<svg xmlns="http://www.w3.org/2000/svg" width="16" height="16"><path d="M1.332 3.168c0-.277.227-.5.5-.5h12.336a.501.501 0 010 1H1.832a.504.504 0 01-.5-.5zM4.145 5.48a.505.505 0 01.71 0l2 2a.507.507 0 010 .707.505.505 0 01-.71 0L5 7.04V12.5c0 .277-.223.5-.5.5a.498.498 0 01-.5-.5V7.04L2.855 8.186a.505.505 0 01-.71 0 .507.507 0 010-.707zm3.523.352c0-.273.223-.5.5-.5h6c.273 0 .5.227.5.5 0 .277-.227.5-.5.5h-6a.498.498 0 01-.5-.5zm0 2.668c0-.277.223-.5.5-.5h6a.501.501 0 010 1h-6a.498.498 0 01-.5-.5zm0 2.668c0-.277.223-.5.5-.5h6a.501.501 0 010 1h-6a.501.501 0 01-.5-.5zm0 0" fill="#ddd"/></svg>