<svg xmlns="http://www.w3.org/2000/svg" width="16" height="16"><g fill="#ddd"><path d="M9.738 1.648l-.05-.046a.5.5 0 00-.657.046l-.043.051a.505.505 0 00.043.656l1.317 1.32H5.512c-2.32.083-4.18 2-4.18 4.348 0 1.13.43 2.153 1.129 2.926l.047.047c.09.074.203.121.324.121a.502.502 0 00.398-.808l-.132-.157a3.339 3.339 0 01-.766-2.129A3.338 3.338 0 015.668 4.68h5.84c.504 0 .703-.555.355-.903zm3.75 3.399a.52.52 0 00-.32-.117c-.277 0-.5.226-.5.504 0 .125.043.238.117.324.547.597.883 1.39.883 2.265a3.338 3.338 0 01-3.336 3.344H5.707l-1.129.004c-.523 0-.656.621-.476.8l.046.052 2.122 2.129.054.05a.5.5 0 00.696-.707l-.043-.05L5.71 12.37h4.777a4.344 4.344 0 004.18-4.348 4.34 4.34 0 00-1.133-2.93zm0 0"/><path d="M7.992 5.762h.106c.156 0 .285.144.285.324v3.98c0 .176-.13.32-.285.32h-.106c-.156 0-.285-.144-.285-.32v-3.98c0-.18.129-.324.285-.324zm0 0" stroke-width=".333335" stroke-linecap="square" stroke="#ddd"/></g></svg>