<svg xmlns="http://www.w3.org/2000/svg" width="16" height="16"><g fill="#ddd"><path d="M8.855 12.285h1.715V14H8.855zm3.43 0H14V14h-1.715zm-3.43-3.43h1.715v1.715H8.855zm1.715 1.715h1.715v1.715H10.57zm1.715-1.715H14v1.715h-1.715zM2 3.715C2 2.765 2.766 2 3.715 2H5.43c.945 0 1.715.766 1.715 1.715V5.43c0 .945-.77 1.715-1.715 1.715H3.715C2.765 7.145 2 6.375 2 5.43zm1.715-.86a.862.862 0 00-.86.86V5.43c0 .472.387.855.86.855H5.43a.855.855 0 00.855-.855V3.715a.859.859 0 00-.855-.86zm0 0"/><path d="M3.715 3.715H5.43V5.43H3.715zM2 10.57c0-.945.766-1.715 1.715-1.715H5.43c.945 0 1.715.77 1.715 1.715v1.715c0 .95-.77 1.715-1.715 1.715H3.715C2.765 14 2 13.234 2 12.285zm1.715-.855a.859.859 0 00-.86.855v1.715c0 .473.387.86.86.86H5.43a.859.859 0 00.855-.86V10.57a.855.855 0 00-.855-.855zm0 0"/><path d="M3.715 10.57H5.43v1.715H3.715zm5.14-6.855c0-.95.77-1.715 1.715-1.715h1.715C13.235 2 14 2.766 14 3.715V5.43c0 .945-.766 1.715-1.715 1.715H10.57c-.945 0-1.715-.77-1.715-1.715zm1.715-.86a.859.859 0 00-.855.86V5.43c0 .472.383.855.855.855h1.715c.473 0 .86-.383.86-.855V3.715a.862.862 0 00-.86-.86zm0 0"/><path d="M10.57 3.715h1.715V5.43H10.57zm0 0"/></g></svg>