<svg xmlns="http://www.w3.org/2000/svg" width="16" height="16"><path d="M10.668 11.281c-.223.031-.441.051-.668.051-.227 0-.445-.02-.668-.05v-2.34l-1.664 1.652a5.634 5.634 0 01-.93-.926L8.395 8h-2.34a4.154 4.154 0 010-1.332h2.34L6.738 5c.13-.168.262-.332.434-.492a3.34 3.34 0 01.496-.434l1.664 1.653v-2.34c.223-.035.441-.055.668-.055.227 0 .445.02.668.055v2.34l1.664-1.653c.336.258.668.594.93.926l-1.657 1.668h2.34a4.154 4.154 0 010 1.332h-2.34l1.657 1.668a4.121 4.121 0 01-.434.492c-.16.172-.328.305-.496.434L10.668 8.94v2.34m-7.336 1.387a1.34 1.34 0 011.336-1.336c.73 0 1.332.602 1.332 1.336C6 13.398 5.398 14 4.668 14a1.34 1.34 0 01-1.336-1.332zm0 0" fill="#ddd"/></svg>