<svg xmlns="http://www.w3.org/2000/svg" width="16" height="16"><path d="M8 1.453c.676 0 4.848 4.266 4.848 7.645 0 2.734-2.172 4.964-4.848 4.964-2.676 0-4.848-2.23-4.848-4.964C3.152 5.473 7.2 1.453 8 1.453zm-.035.492l-.016.004c-.312.117-1.402 1.102-2.289 2.262C4.41 5.85 3.637 7.6 3.637 9.098c0 2.472 1.957 4.476 4.363 4.476 2.406 0 4.363-2.004 4.363-4.476 0-1.38-.793-3.106-2.074-4.797a13.967 13.967 0 00-1.578-1.774 6.27 6.27 0 00-.582-.484 2.63 2.63 0 00-.137-.086zm2.433 4.868a3.39 3.39 0 010 4.8 3.397 3.397 0 01-4.8 0zm0 0" fill="#ddd"/></svg>