<svg width="16" height="16" fill="none" xmlns="http://www.w3.org/2000/svg"><path d="M13.664 3.751a1.5 1.5 0 011.003 1.416v6.666a2.833 2.833 0 01-2.834 2.834H5.167a1.5 1.5 0 01-1.416-1.003l1.398.002h6.684c1.013 0 1.834-.82 1.834-1.833V5.167l-.003-.034zm-2.166-2.418a1.5 1.5 0 011.5 1.5v8.665a1.5 1.5 0 01-1.5 1.5H2.833a1.5 1.5 0 01-1.5-1.5V2.833a1.5 1.5 0 011.5-1.5zm0 1H2.833a.5.5 0 00-.5.5v8.665a.5.5 0 00.5.5h8.665a.5.5 0 00.5-.5V2.833a.5.5 0 00-.5-.5zm-5.11 5.24L8.98 4.98a.5.5 0 01.755.65l-.048.057-3 3a.5.5 0 01-.705.003l-.049-.057-1-1.333a.5.5 0 01.752-.656l.048.056.654.872L8.98 4.98z" fill="#ddd" stroke-width=".667"/></svg>