<svg xmlns="http://www.w3.org/2000/svg" width="16" height="16"><g fill="#ddd"><path d="M8 6a1.999 1.999 0 100 4 1.999 1.999 0 100-4zM7 8c0-.55.45-1 1-1s1 .45 1 1-.45 1-1 1-1-.45-1-1zm0 0"/><path d="M10.617 4.398a.709.709 0 01-.824-.566l-.258-1.418a.36.36 0 00-.277-.281A6.138 6.138 0 008 2c-.426 0-.848.047-1.262.133a.355.355 0 00-.273.281l-.258 1.418c-.008.035-.02.074-.031.11a.707.707 0 01-.906.425l-1.36-.484a.362.362 0 00-.383.097c-.566.625-1 1.368-1.261 2.172a.357.357 0 00.109.38l1.102.929a.706.706 0 010 1.078l-1.102.93c-.11.094-.152.242-.11.379a6.012 6.012 0 001.262 2.172c.098.105.25.144.383.097l1.36-.484a.709.709 0 01.938.535l.257 1.418c.027.14.133.25.273.281a6.202 6.202 0 002.52 0 .36.36 0 00.277-.281l.258-1.418c.008-.035.02-.074.031-.11a.707.707 0 01.906-.425l1.36.484a.362.362 0 00.383-.097c.566-.625 1-1.368 1.261-2.172a.357.357 0 00-.109-.38l-1.102-.929a.706.706 0 010-1.078l1.102-.93c.11-.093.152-.242.11-.379a6.012 6.012 0 00-1.262-2.172.362.362 0 00-.383-.097l-1.36.484a.613.613 0 01-.113.031zM4 4.977l.934.335a1.714 1.714 0 002.257-1.3l.176-.969C7.574 3.016 7.785 3 8 3c.215 0 .426.016.633.043l.176.969a1.71 1.71 0 001.988 1.37c.09-.015.18-.042.27-.07L12 4.978c.258.335.469.699.633 1.085l-.754.637a1.701 1.701 0 000 2.602l.754.636c-.164.387-.375.75-.633 1.086l-.934-.335a1.714 1.714 0 00-2.257 1.3l-.176.969a4.83 4.83 0 01-.633.04 4.83 4.83 0 01-.633-.04l-.176-.969a1.71 1.71 0 00-2.257-1.3L4 11.023a4.961 4.961 0 01-.633-1.085l.754-.637a1.701 1.701 0 000-2.602l-.754-.636c.164-.387.375-.75.633-1.086zm0 0"/></g></svg>