<svg xmlns="http://www.w3.org/2000/svg" width="16" height="16"><path d="M12.336 13.852h-4.77a1.14 1.14 0 01-2.168-.489c0-.457.27-.847.657-1.031V9.945l-2.387.004a1.155 1.155 0 01-.938.649l-.093.004a1.139 1.139 0 01-.489-2.168v-4.77a1.138 1.138 0 111.516-1.516h4.77a1.14 1.14 0 012.168.489c0 .457-.27.847-.653 1.031l-.004 2.383h2.387c.172-.356.523-.614.938-.649l.093-.004a1.139 1.139 0 01.489 2.168v4.77c.382.184.648.574.648 1.027 0 .63-.508 1.137-1.137 1.137-.453 0-.847-.266-1.027-.648h-4.77zm0-6.825h-2.39l.003 1.403c.356.172.61.523.645.937l.004.094a1.14 1.14 0 01-2.168.488l-1.403-.004.004 2.39c.235.114.422.306.535.54h4.77c.11-.238.305-.43.539-.54V7.567a1.127 1.127 0 01-.484-.441zm-3.363 0h-1.41c-.11.235-.301.426-.532.535l-.004 1.41H8.43c.113-.238.304-.429.543-.542zm-.54-3.902H3.669a1.12 1.12 0 01-.543.54v4.769c.234.113.426.304.54.539h2.39V7.566a1.14 1.14 0 01-.653-.937l-.004-.09a1.139 1.139 0 012.168-.488h1.407V3.664a1.127 1.127 0 01-.485-.441zm0 0" fill="#ddd"/></svg>