<svg xmlns="http://www.w3.org/2000/svg" width="16" height="16"><path d="M7.195 2.102a.9.9 0 011.614 0l1.52 3.082 3.401.496c.739.105 1.032 1.011.5 1.535l-2.46 2.398.578 3.387a.9.9 0 01-1.305.95L8 12.347l-3.043 1.601A.9.9 0 013.652 13l.582-3.387-2.46-2.398a.9.9 0 01.5-1.535l3.398-.496zM8 2.727L6.547 5.672a.898.898 0 01-.68.492l-3.25.473L4.97 8.934a.89.89 0 01.258.796l-.555 3.239 2.91-1.528a.88.88 0 01.836 0l2.91 1.528-.555-3.239a.9.9 0 01.258-.796l2.356-2.297-3.254-.473a.885.885 0 01-.676-.492zm0 0" fill="#ddd"/></svg>