<svg xmlns="http://www.w3.org/2000/svg" width="16" height="16"><path d="M8 4.5C6.07 4.5 4.5 6.07 4.5 8s1.57 3.5 3.5 3.5 3.5-1.57 3.5-3.5S9.93 4.5 8 4.5zm0 6A2.497 2.497 0 015.5 8c0-1.383 1.117-2.5 2.5-2.5s2.5 1.117 2.5 2.5-1.117 2.5-2.5 2.5zm0-7c.277 0 .5-.223.5-.5V2c0-.277-.223-.5-.5-.5s-.5.223-.5.5v1c0 .277.223.5.5.5zm0 9c-.277 0-.5.223-.5.5v1c0 .277.223.5.5.5s.5-.223.5-.5v-1c0-.277-.223-.5-.5-.5zm3.887-7.684l.707-.707a.5.5 0 10-.707-.707l-.707.707a.5.5 0 10.707.707zm-7.774 6.368l-.707.707a.5.5 0 10.707.707l.707-.707a.5.5 0 10-.707-.707zM3.5 8c0-.277-.223-.5-.5-.5H2c-.277 0-.5.223-.5.5s.223.5.5.5h1c.277 0 .5-.223.5-.5zM14 7.5h-1c-.277 0-.5.223-.5.5s.223.5.5.5h1c.277 0 .5-.223.5-.5s-.223-.5-.5-.5zM4.11 4.816a.5.5 0 10.706-.707l-.707-.707a.5.5 0 10-.707.707zm7.78 6.364a.5.5 0 10-.706.707l.707.707a.5.5 0 10.707-.707zm0 0" fill="#ddd"/></svg>