<svg xmlns="http://www.w3.org/2000/svg" width="16" height="16"><path d="M9.8 2.297c.13.148.2.34.2.535v10.336a.833.833 0 01-1.371.637L5.316 11H2.832a1.5 1.5 0 01-1.5-1.5v-3a1.5 1.5 0 011.5-1.5h2.484L8.63 2.195a.83.83 0 011.172.102zM9 3.19L5.684 6H2.832c-.273 0-.5.223-.5.5v3c0 .277.227.5.5.5h2.852L9 12.809zm2.402 2.57a.5.5 0 01.688.165c.383.629.574 1.328.574 2.094 0 .765-.191 1.468-.574 2.093a.498.498 0 01-.688.168.505.505 0 01-.168-.687c.286-.469.43-.989.43-1.574 0-.582-.144-1.106-.43-1.57a.504.504 0 01.168-.688zm0 0" fill="#ddd"/></svg>