<svg xmlns="http://www.w3.org/2000/svg" width="16" height="16"><path d="M8.613 2.21C9.148 1.735 10 2.114 10 2.833v10.332c0 .719-.852 1.102-1.387.621l-2.996-2.66a.49.49 0 00-.332-.129H2.832a1.5 1.5 0 01-1.5-1.5V6.5a1.5 1.5 0 011.5-1.5h2.453a.49.49 0 00.332-.129zM9 3.204L6.281 5.621A1.507 1.507 0 015.285 6H2.832c-.273 0-.5.223-.5.5v2.996c0 .277.227.5.5.5h2.453c.367 0 .723.137.996.379L9 12.793zm1.813 2.942a.507.507 0 01.707 0l1.148 1.148 1.145-1.148a.507.507 0 01.707 0 .505.505 0 010 .71L13.375 8l1.145 1.145a.505.505 0 010 .71.507.507 0 01-.707 0l-1.145-1.148-1.148 1.148a.507.507 0 01-.707 0 .505.505 0 010-.71L11.96 8l-1.149-1.145a.505.505 0 010-.71zm0 0" fill="#ddd"/></svg>