<svg xmlns="http://www.w3.org/2000/svg" width="16" height="16"><g fill="#ddd"><path d="M10 2.832c0-.719-.852-1.098-1.387-.621L5.617 4.87A.49.49 0 015.285 5H2.832a1.5 1.5 0 00-1.5 1.5v2.996a1.5 1.5 0 001.5 1.5h2.453a.49.49 0 01.332.129l2.996 2.66c.535.48 1.387.098 1.387-.62zm-3.719 2.79L9 3.202v9.59l-2.719-2.418a1.507 1.507 0 00-.996-.379H2.832a.501.501 0 01-.5-.5V6.5c0-.277.227-.5.5-.5h2.453c.367 0 .723-.137.996-.379zm6.38-1.692a.5.5 0 01.698.105A6.648 6.648 0 0114.668 8a6.648 6.648 0 01-1.309 3.965.5.5 0 11-.8-.598A5.649 5.649 0 0013.668 8a5.649 5.649 0 00-1.11-3.367.5.5 0 01.102-.703zm0 0"/><path d="M11.43 5.578a.5.5 0 01.675.203c.36.66.563 1.418.563 2.219 0 .8-.203 1.559-.563 2.219a.5.5 0 11-.878-.477c.28-.515.441-1.11.441-1.742 0-.633-.16-1.227-.441-1.742a.503.503 0 01.203-.68zm0 0"/></g></svg>