<svg xmlns="http://www.w3.org/2000/svg" width="16" height="16"><path d="M7.273 1.855a1.504 1.504 0 011.985.493l.055.093 5.171 9.336a1.503 1.503 0 01-1.21 2.227H2.827a1.496 1.496 0 01-1.36-2.129l.048-.098 5.171-9.336c.137-.246.34-.449.586-.586zm6.336 10.407L8.438 2.926a.5.5 0 00-.836-.059l-.04.059-5.171 9.336a.5.5 0 00.375.738l.062.004h10.344a.498.498 0 00.465-.684l-.028-.058-5.171-9.336zM8 10.668a.667.667 0 11.002 1.334A.667.667 0 018 10.668zm-.004-5c.254 0 .465.187.496.43l.004.066.004 3.004a.501.501 0 01-.996.066L7.5 9.168l-.004-3c0-.277.227-.5.5-.5zm0 0" fill="#ddd"/></svg>